<?xml version="1.0" encoding="utf-8"?><svg width="191" height="46" fill="none" xmlns="http://www.w3.org/2000/svg" viewBox="0 0 191 46"><path d="M62.007 5.91h-6.862v15.705h3.167v-5.142h3.695c3.608 0 5.807-1.215 5.807-5.234 0-4.02-2.287-5.329-5.807-5.329zm.088 7.572h-3.783v-4.58h3.783c1.584 0 2.376.467 2.376 2.337.088 1.776-.704 2.243-2.376 2.243zM80.66 18.717h-7.39v-3.552h6.598v-2.898h-6.599V8.902h7.302V5.911h-10.47v15.704H80.66v-2.898zM87.434 21.615H90.6V8.995h4.575V5.911h-12.23v3.084h4.488v12.62zM106.877 21.615h3.696l-4.4-5.889c1.76-.56 3.256-1.963 3.256-4.674 0-4.02-2.992-5.141-5.895-5.141h-6.07v15.704h3.167V16.1h2.287l3.959 5.515zm-6.334-12.713h3.079c1.32 0 2.464.56 2.464 2.244 0 1.589-1.144 2.243-2.464 2.243h-3.079V8.902zM119.195 5.63c-5.279 0-7.83 3.927-7.83 8.133 0 4.3 2.639 8.133 7.83 8.133 5.279 0 7.83-3.926 7.83-8.133 0-4.206-2.639-8.133-7.83-8.133zm0 13.181c-3.079 0-4.663-2.244-4.663-5.048s1.584-5.048 4.663-5.048 4.575 2.244 4.575 5.048-1.584 5.048-4.575 5.048zM139.167 18.25c-.44.187-.968.28-1.584.28-2.199 0-5.103-1.028-5.103-5.234 0-3.646 2.64-5.142 5.279-5.142 1.496 0 2.991.468 4.135 1.215V6.191a10.952 10.952 0 00-4.575-1.028c-4.047 0-8.094 2.43-8.094 8.133 0 5.795 3.959 8.132 8.094 8.132 1.672 0 3.343-.374 4.839-1.028v-7.759h-2.991v5.609zM157.027 10.585c0-4.02-2.992-5.142-5.895-5.142h-6.071v15.705h3.168v-5.515h2.287l3.959 5.515h3.695l-4.399-5.89c1.848-.56 3.256-1.962 3.256-4.673zm-5.719 2.337h-3.079V8.435h3.079c1.32 0 2.463.56 2.463 2.243 0 1.59-1.143 2.244-2.463 2.244zM165.913 5.443l-6.071 15.705h3.255l1.056-2.898h6.775l1.055 2.898h3.256l-5.983-15.705h-3.343zm-.704 10.003l2.023-5.61c.088-.28.264-.653.352-1.214.088.56.176.934.352 1.215l2.112 5.609h-4.839zM182.717 5.443h-5.542v15.705h5.542c5.279 0 7.743-3.272 7.743-7.852 0-4.487-2.464-7.853-7.743-7.853zm0 12.807h-2.375V8.435h2.375c2.904 0 4.487 1.682 4.487 4.86 0 3.272-1.583 4.955-4.487 4.955zM48.452 25.216v-.197c0-.098 0-.098-.092-.197l-5.918-14.676c0-.099 0-.197-.093-.394l-2.404-5.91v-.099s0-.098-.092-.098l-.093-.099-.092-.098h-.092L32.456.296c-.093 0-.093 0-.185-.099h-.093-.185L16.46 0h-.185c-.092 0-.092 0-.185.099L9.062 3.25h-.093s-.092 0-.092.098l-.093.099-.092.098v.099s0 .098-.093.098l-2.496 5.91c0 .099-.093.197-.093.394L.092 24.724c0 .098 0 .098-.092.197v.591c0 .098 0 .098.092.197v.098l.093.099c0 .098.092.098.185.197l6.473 5.023 16.459 14.382s0 .098.092.098c.185.296.462.394.74.394h.092c.278 0 .555-.098.74-.394 0 0 0-.098.092-.098l16.09-13.865-.093-.098c-.37-.493-.647-1.084-.74-1.675v-.295L24.226 43.439 8.876 30.141l4.44-5.811 5.547 8.668v2.955c0 .394.185.69.462.886l4.161 2.562c.185.196.463.295.74.295h.093c.277 0 .554-.099.74-.295l4.16-2.562c.278-.197.463-.59.463-.886v-2.955l5.548-8.668 5.733 7.486.74-.69 6.472-5.023c.092 0 .092-.099.185-.099 0 0 .092-.098.092-.197 0-.098.093-.098.093-.197-.185-.197-.185-.295-.093-.394zm-20.897 8.176v1.871l-3.421 2.069-3.422-2.069v-1.871l3.422-.985 3.42.985zM15.812 16.844l-8.6 11.918-4.623-3.644L13.777 15.07l2.035 1.773zm-7.49-7.19l1.572-3.842 6.103 4.038-2.59 2.463-5.085-2.66zm9.709-.986l-6.38-4.235 4.53-2.069 3.977 6.304H18.03zm10.264 0l3.976-6.304 4.53 2.069-6.38 4.235h-2.126zm-10.634 9.16h1.387l-1.664 7.191V25.512c0 .098 0 .098.092.197v.098l.093.099.092-.099h-.092l.092.099v.098l4.623 4.827-2.034.59-5.825-9.061 3.236-4.531zm-.092-2.166l-2.404-2.167 2.958-2.66h2.59l-1.11 4.827h-2.034zm8.322-6.994h-3.422l-4.068-6.501h11.65l-4.16 6.501zm-.185 2.167l3.143 13.298h-9.154l3.052-13.298h2.959zm5.085 15.07l.093-.098s.092-.098.092-.197c0-.098.093-.098.093-.197v-.197-.098-.197l-1.665-7.19h1.387l3.237 4.53-5.826 9.062-2.034-.59 4.623-4.827zM28.85 15.663l-1.11-4.827h2.59l2.959 2.66-2.404 2.167h-2.035zm-1.294 10.54l-3.421 3.447-3.422-3.448h6.843zm7.397-13.89L32.363 9.85l6.103-4.038 1.572 3.841-5.086 2.66zm10.819 12.806l-4.623 3.644-8.6-11.918 2.034-1.773 11.189 10.047zM36.617 13.79l4.253-2.167 3.884 9.752-8.137-7.585zm-33.01 7.585l3.883-9.752 4.253 2.167-8.137 7.585zM55.866 26.152v15.346h6.599c2.674 0 6.029-.811 6.029-4.297 0-2.258-1.425-3.376-2.938-3.815 1.36-.46 2.324-1.556 2.324-3.354 0-2.63-2.04-3.88-5.306-3.88h-6.708zm9.34 10.698c0 1.666-1.316 1.973-2.785 1.973h-3.289v-3.946h3.464c1.316 0 2.61.35 2.61 1.973zm-.593-6.248c0 1.184-.899 1.754-2.148 1.754h-3.31v-3.508h3.134c1.447 0 2.324.548 2.324 1.754zM71.115 26.152v15.346h3.288V26.152h-3.288zM81.195 41.498v-6.27h2.477l4.188 6.27h3.639l-5.262-7.87 4.977-7.476h-3.661l-3.88 6.094h-2.478v-6.094h-3.288v15.346h3.288zM93.284 26.152v15.346h10.94v-2.894h-7.652v-3.42h6.862v-2.872h-6.862v-3.266h7.52v-2.894H93.284z" fill="#F1F1F1"/></svg>