<?xml version="1.0" encoding="utf-8"?><svg width="136" height="136" xmlns="http://www.w3.org/2000/svg" viewBox="0 0 136 136"><path d="M74.274 1.149l-.312 6.727-.872-.062.312-5.98-3.115-.124-.311 5.98-.872-.063L69.478.9l4.796.249zM76.142 5.82c-.124 1.184.56 1.745 1.433 1.87.623.062.996.062 1.37-.063l.063.623c-.312.124-.873.187-1.62.062-1.495-.187-2.18-1.308-1.993-2.74.187-1.433 1.183-2.43 2.616-2.243 1.557.25 1.806 1.62 1.682 2.554 0 .187-.063.311-.063.374l-3.488-.436zm2.616-.249c.063-.56 0-1.432-.996-1.557-.872-.124-1.37.623-1.557 1.246l2.553.311zM80.876 5.572c.125-.623.25-1.122.311-1.558l.748.187-.125.81c.499-.498 1.122-.685 1.869-.498 1.121.249 1.744 1.432 1.433 2.865-.374 1.682-1.62 2.304-2.741 2.055-.623-.124-1.121-.56-1.308-1.059l-.56 2.554-.873-.187 1.246-5.17zm.56 1.432c0 .125-.062.25-.062.374 0 .623.436 1.183 1.06 1.308.934.187 1.619-.436 1.868-1.495.187-.934-.062-1.869-.997-2.055-.56-.125-1.245.186-1.557.747-.062.125-.124.25-.124.311l-.187.81zM86.67 8.063c-.375 1.121.248 1.806 1.058 2.118.623.187.997.187 1.37.187l-.062.623c-.311.062-.872 0-1.62-.187-1.432-.436-1.93-1.682-1.494-3.052.436-1.37 1.62-2.243 2.927-1.807 1.495.499 1.495 1.931 1.184 2.803-.063.187-.125.312-.125.374l-3.239-1.059zm2.615.187c.187-.498.25-1.433-.747-1.744-.872-.25-1.495.374-1.744.934l2.491.81zM92.71 7.44l-.809 1.869c-.311.685-.498 1.12-.81 1.744.499-.437.81-.686 1.308-1.06l2.367-1.743.934.373-1.868 4.423-.747-.312.81-1.868c.31-.748.498-1.121.809-1.807-.498.436-.872.748-1.308 1.06-.685.498-1.557 1.183-2.367 1.743l-.934-.373 1.868-4.423.748.374zm1.309-1.62c-.125.436-.063.81.311.935.374.187.685-.063.934-.436l.561.249c-.374.747-.996.934-1.682.623-.81-.312-.934-.997-.685-1.62l.56.25zM100.123 10.928l-.312.623-1.308-.685-1.868 3.675-.748-.374 1.869-3.675-1.308-.685.311-.623 3.364 1.744zM101.681 11.8l-1.059 1.744c-.374.685-.685 1.059-1.059 1.62.561-.374.872-.561 1.433-.873l2.616-1.308.872.561-2.492 4.111-.685-.436 1.059-1.744c.436-.685.623-.997 1.059-1.682-.561.374-.997.56-1.433.872-.809.374-1.744.935-2.616 1.37l-.872-.498 2.492-4.11.685.373zM108.345 16.347l-1.308 1.62.187.124 2.74-.498.81.685-2.99.436c.561.56.623 1.246.374 2.18-.125.311-.249.81-.311 1.246l-.748-.561c0-.25.125-.623.249-1.059.249-.81.063-1.37-.56-1.869l-.125-.124-1.308 1.682-.685-.56 2.99-3.8.685.498zM115.57 22.7l-.498.499-1.059-1.06-2.865 2.99-.623-.622 2.865-2.99-1.059-1.059.499-.498 2.74 2.74zM117.314 28.182c-1.308 1.183-2.741.81-3.488-.062-.872-.997-.81-2.367.311-3.364 1.184-1.059 2.616-.934 3.488.062.872.997.748 2.367-.311 3.364zm-2.616-2.803c-.81.685-.997 1.682-.436 2.305.56.622 1.557.56 2.367-.125.623-.56 1.121-1.557.436-2.305-.685-.81-1.682-.498-2.367.125zM119.868 27.683c.249.25.685.686.996 1.184.499.623 1.184 1.806.312 2.429-.499.374-1.059.187-1.495-.125.373.623.311 1.308-.249 1.682-.997.748-2.118-.436-2.679-1.183-.311-.436-.623-.872-.747-1.122l3.862-2.865zm-2.866 3.177l.374.56c.374.499.997 1.06 1.557.686.561-.436.249-1.06-.249-1.744l-.374-.499-1.308.997zm1.807-1.308l.373.498c.374.498.935.935 1.371.623.374-.311.311-.747-.187-1.432-.187-.25-.312-.374-.436-.499l-1.121.81zM120.365 36.777l.499-.373c-.436 0-.997-.25-1.371-.873-.498-.81-.187-1.619.374-1.993.997-.623 2.056-.062 3.052 1.495l.062-.062c.312-.187.872-.685.374-1.495a2.67 2.67 0 00-.996-.872l.373-.498c.436.187.872.623 1.184 1.12.809 1.247.124 2.119-.685 2.617l-1.495.996c-.374.25-.686.437-.935.686l-.436-.748zm1.994-1.432c-.499-.81-1.246-1.62-1.994-1.121-.498.31-.498.747-.249 1.12.312.561.872.623 1.308.561a.468.468 0 00.249-.124l.686-.436zM124.29 36.964c.56-.311.996-.56 1.37-.747l.374.685-.686.436c.686.062 1.246.374 1.62 1.059.561 1.059.062 2.242-1.246 2.927-1.557.81-2.803.25-3.301-.747-.311-.56-.311-1.184 0-1.682l-2.305 1.246-.373-.748 4.547-2.429zm-.748 1.37c-.124.063-.187.125-.311.187a1.433 1.433 0 00-.312 1.62c.436.81 1.371.934 2.305.436.872-.436 1.37-1.308.934-2.118-.249-.56-.934-.81-1.557-.685-.125 0-.249.062-.374.124l-.685.436zM128.401 41.698l-2.242 2.055a7.89 7.89 0 01-.81.685c.312 0 .685-.062 1.059-.124l2.99-.25.374.873-3.613.186c-1.744.063-2.741 0-3.426-.373-.498-.25-.81-.56-.934-.748l.623-.498c.124.187.373.374.685.56.249.125.685.312 1.183.312h.249c.063 0 .125-.062.187-.125l3.426-3.363.249.81zM135.751 74.274l-6.727-.311.062-.872 5.98.311.124-3.114-5.979-.312.062-.872 6.727.312-.249 4.858zM131.08 76.08c-1.184-.124-1.744.56-1.869 1.433-.062.623-.062.996.063 1.37l-.623.063c-.125-.312-.187-.873-.063-1.62.187-1.495 1.308-2.18 2.741-1.993 1.433.187 2.429 1.183 2.242 2.616-.249 1.557-1.619 1.806-2.553 1.682-.187 0-.312-.063-.374-.063l.436-3.488zm.249 2.616c.561.063 1.433 0 1.557-.996.125-.872-.623-1.37-1.246-1.557l-.311 2.553zM131.329 80.814c.623.125 1.121.25 1.557.312l-.187.747-.81-.125c.499.499.686 1.122.499 1.869-.249 1.121-1.433 1.744-2.865 1.433-1.682-.374-2.305-1.62-2.056-2.741.125-.623.561-1.121 1.059-1.308l-2.554-.56.187-.873 5.17 1.246zm-1.433.56c-.124 0-.249-.062-.373-.062-.623 0-1.184.436-1.309 1.06-.186.934.437 1.619 1.495 1.868.935.187 1.869-.125 2.056-.997.124-.56-.187-1.245-.748-1.557-.124-.062-.249-.125-.311-.125l-.81-.186zM128.9 86.607c-1.121-.374-1.806.249-2.118 1.058-.187.623-.187.997-.187 1.37l-.622-.061c-.063-.312 0-.873.186-1.62.436-1.433 1.682-1.93 3.052-1.495 1.371.436 2.243 1.62 1.807 2.928-.499 1.494-1.931 1.494-2.803 1.183-.187-.062-.312-.124-.374-.124l1.059-3.24zm-.249 2.678c.498.187 1.432.25 1.744-.748.249-.872-.374-1.494-.934-1.744l-.81 2.492zM129.461 92.71l-1.869-.809c-.685-.311-1.121-.498-1.744-.81.436.499.685.81 1.059 1.308l1.744 2.367-.374.934-4.422-1.868.311-.747 1.869.81c.747.31 1.121.498 1.806.809a16.472 16.472 0 01-1.059-1.308c-.498-.685-1.183-1.557-1.744-2.367l.374-.934 4.423 1.868-.374.748zm1.619 1.247c-.436-.125-.809-.063-.934.31-.187.375.062.686.436.935l-.249.56c-.748-.373-.934-.996-.623-1.68.311-.81.997-.935 1.619-.686l-.249.56zM125.972 100.06l-.623-.311.685-1.308-3.675-1.869.374-.747 3.675 1.869.685-1.309.623.312-1.744 3.363zM125.1 101.68l-1.744-1.059c-.685-.374-1.059-.685-1.619-1.059.373.561.56.872.872 1.433l1.308 2.616-.561.872-4.111-2.492.436-.685 1.744 1.059c.685.436.997.623 1.682 1.059-.374-.56-.561-.997-.872-1.433-.374-.809-.934-1.744-1.37-2.616l.498-.872 4.111 2.492-.374.685zM120.553 108.345l-1.62-1.308-.124.187.498 2.741-.685.81-.436-2.99c-.561.56-1.246.623-2.18.373a6.073 6.073 0 00-1.246-.311l.561-.747c.249 0 .623.124 1.059.249.809.249 1.37.062 1.868-.561l.125-.124-1.682-1.308.561-.686 3.799 2.99-.498.685zM114.2 115.508l-.499-.499 1.059-1.059-2.989-2.865.622-.623 2.99 2.866 1.059-1.059.498.498-2.74 2.741zM108.718 117.252c-1.183-1.308-.809-2.741.063-3.488.996-.872 2.367-.81 3.363.311 1.059 1.184.934 2.616-.062 3.488-.997.935-2.367.81-3.364-.311zm2.866-2.554c-.686-.81-1.682-.996-2.305-.436-.623.561-.561 1.557.125 2.367.56.623 1.557 1.121 2.304.436.748-.685.498-1.682-.124-2.367zM109.217 119.806c-.249.249-.685.685-1.183.996-.623.499-1.807 1.184-2.43.312-.373-.499-.186-1.059.125-1.495-.623.373-1.308.311-1.682-.249-.747-.997.436-2.118 1.184-2.679.436-.311.872-.623 1.121-.747l2.865 3.862zm-3.177-2.803l-.56.373c-.498.374-1.059.997-.685 1.558.436.56 1.059.249 1.744-.25l.498-.373-.997-1.308zm1.309 1.744l-.499.373c-.498.374-.934.935-.623 1.371.312.374.748.311 1.433-.187.249-.187.374-.312.498-.436l-.809-1.121zM100.185 120.366l.374.499c0-.436.249-.997.872-1.371.81-.498 1.62-.187 1.993.374.623.997.063 2.055-1.495 3.052l.063.062c.187.312.685.872 1.495.374.373-.249.685-.623.872-.997l.498.374c-.187.436-.623.872-1.121 1.184-1.246.809-2.118.124-2.616-.685l-.997-1.495c-.249-.374-.436-.686-.685-.935l.747-.436zm1.433 1.993c.81-.498 1.619-1.245 1.121-1.993-.311-.498-.747-.498-1.121-.249-.561.312-.623.872-.561 1.308 0 .062.063.187.125.249l.436.685zM99.999 124.228c.311.56.56.996.747 1.37l-.685.374-.436-.685c-.062.685-.374 1.245-1.059 1.619-1.059.561-2.242.062-2.928-1.246-.81-1.557-.249-2.802.748-3.301.56-.311 1.183-.311 1.682 0l-1.246-2.304.747-.374 2.43 4.547zm-1.37-.685c-.063-.125-.125-.187-.188-.312a1.432 1.432 0 00-1.619-.311c-.81.436-.934 1.37-.436 2.304.436.872 1.308 1.371 2.118.935.56-.249.81-.935.685-1.557 0-.125-.062-.25-.125-.374l-.436-.685zM95.202 128.401l-2.055-2.242a7.89 7.89 0 01-.685-.81c0 .312.062.685.124 1.059l.25 2.99-.873.374-.124-3.675c-.062-1.744 0-2.741.374-3.426.249-.498.56-.81.747-.934l.498.622c-.186.125-.373.374-.56.686-.125.249-.312.685-.312 1.183v.249c0 .062.063.125.125.187l3.363 3.426-.872.311zM62.627 135.751l.31-6.727.873.063-.312 5.979 3.115.125.311-5.98.872.063-.311 6.727-4.858-.25zM60.82 131.018c.125-1.184-.56-1.744-1.432-1.869-.623-.062-.997-.062-1.37.062l-.063-.623c.312-.124.872-.186 1.62-.062 1.494.187 2.18 1.308 1.993 2.741-.187 1.432-1.184 2.429-2.616 2.242-1.557-.249-1.807-1.682-1.682-2.554 0-.187.062-.311.062-.373l3.488.436zm-2.616.311c-.062.561 0 1.433.997 1.557.872.125 1.37-.623 1.557-1.246l-2.554-.311zM56.086 131.329c-.125.623-.25 1.121-.311 1.557l-.748-.187.125-.81c-.499.499-1.121.686-1.869.499-1.121-.249-1.744-1.433-1.433-2.865.374-1.682 1.62-2.305 2.741-2.056.623.125 1.121.561 1.308 1.059l.56-2.554.873.187-1.246 5.17zm-.56-1.433c0-.124.062-.249.062-.373 0-.623-.436-1.184-1.06-1.309-.934-.186-1.619.437-1.868 1.495-.187.935.063 1.869.997 2.056.56.124 1.246-.187 1.557-.748.062-.124.125-.249.125-.311l.186-.81zM50.293 128.837c.374-1.121-.249-1.806-1.059-2.117-.623-.187-.996-.187-1.37-.187l.062-.623c.312-.062.872 0 1.62.187 1.432.436 1.93 1.681 1.495 3.052-.436 1.37-1.62 2.242-2.928 1.806-1.495-.498-1.495-1.931-1.183-2.803.062-.187.124-.311.124-.374l3.24 1.059zm-2.616-.187c-.187.499-.249 1.433.748 1.744.872.25 1.495-.373 1.744-.934l-2.492-.81zM42.944 131.017c.124-.436.062-.809-.312-.934-.374-.187-.685.062-.934.436l-.56-.249c.373-.747.996-.934 1.681-.623.81.312.934.997.685 1.62l-.56-.25zm1.307-1.557l.81-1.868c.312-.685.499-1.121.81-1.744-.498.436-.81.685-1.308 1.059l-2.367 1.744-.934-.374 1.868-4.423.748.312-.81 1.869c-.311.747-.498 1.121-.81 1.806.499-.436.872-.748 1.308-1.059.685-.498 1.558-1.183 2.367-1.744l.935.374-1.869 4.422-.748-.374zM36.84 125.972l.312-.623 1.308.685 1.868-3.675.748.374-1.869 3.675 1.308.685-.311.623-3.364-1.744zM35.282 125.038l1.06-1.744c.373-.623.684-1.059 1.058-1.62-.56.374-.872.561-1.432.872l-2.617 1.308-.871-.56 2.491-4.111.685.436-1.059 1.744c-.436.685-.623.996-1.059 1.682.56-.374.997-.561 1.433-.872.81-.374 1.744-.935 2.616-1.371l.872.499-2.491 4.111-.686-.374zM28.555 120.554l1.308-1.62-.187-.124-2.74.498-.81-.685 2.99-.436c-.561-.561-.624-1.246-.375-2.18.125-.312.25-.81.312-1.246l.747.561c0 .249-.124.622-.249 1.058-.249.81-.062 1.371.56 1.869l.125.125 1.308-1.682.686.56-2.99 3.8-.685-.498zM21.392 114.2l.498-.499 1.06 1.059 2.864-2.989.623.622-2.865 2.99 1.059 1.059-.498.498-2.74-2.74zM19.648 108.719c1.308-1.184 2.74-.81 3.488.062.872.997.81 2.367-.311 3.363-1.184 1.059-2.616.935-3.488-.062-.935-.996-.81-2.367.311-3.363zm2.554 2.803c.81-.686.996-1.682.436-2.305-.56-.623-1.557-.561-2.367.125-.623.56-1.121 1.557-.436 2.304.685.81 1.682.498 2.367-.124zM17.095 109.217c-.25-.249-.685-.685-.997-1.184-.498-.622-1.183-1.806-.311-2.429.498-.373 1.059-.187 1.495.125-.374-.623-.312-1.308.249-1.682.996-.747 2.118.436 2.678 1.184.312.436.623.872.748 1.121l-3.862 2.865zm1.059-1.869l-.374-.498c-.374-.498-.934-.934-1.37-.623-.374.312-.312.748.186 1.433.187.249.312.373.436.498l1.122-.81zm1.806-1.308l-.374-.56c-.373-.499-.996-1.059-1.557-.685-.56.436-.249 1.058.25 1.744l.373.498 1.308-.997zM16.596 100.123l-.498.374c.436 0 .997.249 1.37.872.499.81.187 1.619-.373 1.993-.997.623-2.056.062-3.052-1.495l-.063.062c-.311.187-.872.686-.373 1.495.249.374.623.686.996.872l-.373.499c-.436-.187-.872-.623-1.184-1.121-.81-1.246-.124-2.118.685-2.617l1.495-.996c.374-.25.685-.436.934-.685l.436.747zm-2.055 1.433c.498.809 1.246 1.619 1.993 1.121.498-.312.498-.748.25-1.121-.312-.561-.873-.623-1.309-.561a.468.468 0 00-.249.125l-.685.436zM12.672 99.936c-.56.312-.997.561-1.37.748l-.374-.686.685-.436c-.685-.062-1.246-.373-1.62-1.058-.56-1.06-.062-2.243 1.246-2.928 1.557-.81 2.803-.25 3.301.748.312.56.312 1.183 0 1.681l2.305-1.245.374.747-4.547 2.43zm.747-1.37c.125-.063.187-.125.312-.187.436-.436.56-1.059.311-1.62-.436-.81-1.37-.934-2.304-.436-.872.437-1.37 1.309-.935 2.118.25.56.935.81 1.557.685.125 0 .25-.062.374-.124l.685-.436zM8.499 95.14l2.242-2.055c.25-.25.56-.499.81-.685-.312 0-.685.062-1.06.124l-2.989.25-.374-.873 3.675-.124c1.744-.063 2.741 0 3.426.373.498.25.81.561.934.748l-.623.498c-.124-.187-.373-.374-.685-.56-.249-.125-.685-.312-1.183-.312h-.25c-.062 0-.124.062-.186.125L8.81 96.012 8.5 95.14zM1.149 62.626l6.727.311-.062.872-5.98-.311-.124 3.114 5.98.312-.063.872L.9 67.484l.249-4.858zM5.883 60.82c1.183.124 1.744-.56 1.868-1.433.063-.623.063-.996-.062-1.37l.623-.062c.124.311.187.872.062 1.62-.187 1.494-1.308 2.18-2.74 1.992-1.433-.187-2.43-1.183-2.243-2.616.25-1.557 1.62-1.806 2.554-1.681.187 0 .311.062.374.062l-.436 3.488zm-.25-2.678c-.56-.063-1.432 0-1.557.996-.124.872.623 1.37 1.246 1.557l.311-2.553zM5.572 56.086c-.623-.124-1.121-.249-1.557-.311l.187-.748.81.125c-.499-.498-.686-1.121-.499-1.869.25-1.12 1.433-1.744 2.865-1.432 1.682.373 2.305 1.62 2.056 2.74-.125.623-.561 1.121-1.06 1.308l2.554.561-.186.872-5.17-1.246zm1.432-.56c.125 0 .25.062.374.062.623 0 1.184-.436 1.308-1.059.187-.934-.436-1.62-1.495-1.869-.934-.186-1.868.063-2.055.997-.125.56.187 1.246.747 1.557.125.063.25.125.312.125l.81.187zM8.063 50.293c1.121.374 1.807-.249 2.118-1.059.187-.623.187-.996.187-1.37l.623.062c.062.312 0 .872-.187 1.62-.436 1.432-1.682 1.93-3.052 1.495-1.37-.436-2.242-1.62-1.806-2.928.498-1.495 1.93-1.495 2.803-1.183.186.062.31.124.373.124l-1.059 3.24zm.187-2.678c-.498-.187-1.432-.25-1.744.747-.249.872.374 1.495.934 1.744l.81-2.491zM5.883 42.944c.436.124.81.062.935-.312.187-.373-.063-.685-.436-.934l.249-.56c.747.373.934.996.623 1.681-.312.81-.997.934-1.62.685l.25-.56zm1.558 1.245l1.868.81c.685.312 1.121.498 1.744.81-.436-.498-.685-.81-1.059-1.308L8.25 42.134l.374-.934 4.422 1.868-.311.748-1.869-.81c-.747-.311-1.12-.498-1.806-.81.436.499.747.872 1.059 1.308.498.686 1.183 1.558 1.744 2.367l-.374.934-4.422-1.868.374-.747zM10.928 36.777l.623.312-.685 1.308 3.675 1.868-.374.748-3.675-1.869-.685 1.308-.623-.311 1.744-3.364zM11.863 35.22l1.744 1.059c.685.373 1.059.685 1.62 1.058-.374-.56-.561-.872-.873-1.432l-1.308-2.616.561-.872 4.11 2.491-.435.685-1.744-1.059c-.685-.435-.997-.622-1.682-1.058.374.56.56.996.872 1.432.374.81.934 1.744 1.37 2.616l-.498.872-4.11-2.491.373-.685zM16.347 28.555l1.62 1.308.124-.186-.498-2.741.685-.81.436 2.99c.56-.56 1.246-.623 2.18-.374.312.125.81.25 1.246.312l-.56.747c-.25 0-.623-.124-1.06-.249-.81-.25-1.37-.062-1.868.56l-.125.125 1.682 1.308-.56.685-3.8-2.99.498-.685zM22.763 21.33l.498.499-1.058 1.058 2.99 2.866-.624.623-2.99-2.866-1.058 1.06-.498-.5 2.74-2.74zM28.181 19.648c1.184 1.308.81 2.74-.062 3.488-.997.872-2.367.81-3.364-.311-1.058-1.183-.934-2.616.063-3.488 1.059-.934 2.429-.81 3.363.311zm-2.803 2.554c.685.81 1.682.997 2.305.436.623-.56.56-1.557-.125-2.367-.56-.623-1.557-1.121-2.304-.436-.81.685-.499 1.682.124 2.367zM27.746 17.032c.249-.25.685-.685 1.183-.997.623-.498 1.806-1.183 2.43-.311.373.498.186 1.059-.125 1.495.622-.374 1.308-.312 1.681.249.748.996-.436 2.118-1.183 2.678-.436.312-.872.623-1.121.748l-2.865-3.862zm1.806 1.121l.498-.374c.498-.373.934-.934.623-1.37-.311-.374-.747-.311-1.432.187-.25.187-.374.311-.499.436l.81 1.121zm1.37 1.744l.56-.374c.5-.373 1.06-.996.686-1.557-.436-.56-1.059-.249-1.744.25l-.498.373.996 1.308zM36.778 16.534l-.374-.498c0 .436-.25.996-.872 1.37-.81.498-1.62.187-1.993-.374-.623-.996-.063-2.055 1.494-3.052l-.062-.062c-.187-.311-.685-.872-1.495-.374-.373.25-.685.623-.872.997l-.498-.374c.187-.436.623-.872 1.121-1.183 1.246-.81 2.118-.125 2.616.685l.997 1.495c.249.373.436.685.685.934l-.747.436zm-1.433-1.993c-.81.498-1.62 1.246-1.121 1.993.311.498.747.498 1.12.25.562-.312.624-.873.562-1.309a.472.472 0 00-.125-.249l-.436-.685zM36.965 12.61c-.312-.56-.56-.997-.748-1.37l.685-.374.436.685c.063-.685.374-1.246 1.06-1.62 1.058-.56 2.242-.062 2.927 1.246.81 1.557.249 2.803-.748 3.302-.56.31-1.183.31-1.681 0l1.245 2.304-.747.374-2.43-4.547zm1.37.747c.062.125.125.187.187.312.436.436 1.059.56 1.62.311.81-.436.934-1.37.435-2.304-.436-.872-1.308-1.37-2.117-.935-.561.25-.81.935-.685 1.557 0 .125.062.25.124.374l.436.685zM41.76 8.499l2.056 2.242c.249.25.498.56.685.81 0-.311-.063-.685-.125-1.059l-.249-2.99L45 7.13l.125 3.675c.062 1.744 0 2.74-.374 3.425-.25.499-.56.81-.748.935l-.498-.623c.187-.125.374-.374.56-.685.125-.25.312-.685.312-1.184v-.249c0-.062-.062-.124-.124-.187L40.888 8.81l.872-.311z"/></svg>