<?xml version="1.0" encoding="utf-8"?><svg width="136" height="136" xmlns="http://www.w3.org/2000/svg" viewBox="0 0 136 136"><path d="M72.942 6.678c-.312.125-.997.25-1.808.25-1.87-.063-3.241-1.372-3.179-3.554.125-2.12 1.559-3.49 3.678-3.366.81.062 1.371.25 1.559.374l-.25.686c-.312-.187-.81-.312-1.371-.312-1.559-.062-2.68.873-2.743 2.68-.063 1.621.81 2.743 2.431 2.806.499 0 1.06-.063 1.434-.187l.25.623zM74.563 2.19l1.06.125.498 2.555c.063.374.187.998.25 1.372.187-.312.56-1.06.81-1.559l1.06-1.994 1.06.124-.375 4.8-.81-.124.25-2.307c.062-.499.062-1.122.186-1.745-.187.436-.374.81-.748 1.496l-1.246 2.306-.624-.062-.498-2.494c-.063-.498-.188-1.184-.25-1.683h-.062c-.125.561-.25 1.185-.312 1.683l-.436 2.245-.81-.125.997-4.613zM84.786 6.553c-.437 1.746-1.808 2.182-2.93 1.933-1.247-.312-1.995-1.496-1.683-2.93.374-1.559 1.62-2.244 2.93-1.933 1.371.312 2.057 1.496 1.683 2.93zm-3.74-.81c-.25.997.124 1.932.997 2.12.81.186 1.62-.437 1.87-1.497.187-.81.062-1.87-.998-2.12-.934-.249-1.62.562-1.87 1.497zM89.711 5.68l-.187.686-1.434-.436-1.246 3.927-.81-.25L87.28 5.68l-1.434-.436.187-.686 3.678 1.122zM90.023 7.488c.25-.56.436-1.06.56-1.496l.749.312-.25.81c.562-.436 1.185-.498 1.933-.187 1.06.437 1.496 1.683.935 3.055-.686 1.62-1.995 1.995-2.992 1.558-.561-.25-.998-.685-1.06-1.247l-.997 2.432-.81-.312 1.932-4.925zm.312 1.496c-.063.125-.063.25-.125.374-.063.624.25 1.185.81 1.434.873.374 1.62-.124 2.057-1.184.374-.873.187-1.87-.623-2.182-.561-.25-1.247-.062-1.62.499-.063.062-.126.187-.188.311l-.311.748zM95.383 10.855c-.498 1.06-.062 1.87.686 2.244.56.311.935.374 1.309.374l-.125.623c-.311 0-.872-.124-1.558-.499-1.31-.685-1.683-1.932-.997-3.241.685-1.31 1.932-1.933 3.179-1.247 1.371.748 1.122 2.12.748 2.93-.063.187-.187.25-.187.374l-3.055-1.558zm2.556.623c.25-.499.436-1.371-.436-1.808-.81-.436-1.496.125-1.87.624l2.306 1.184zM103.487 12.537l-.374.624-1.309-.81-2.181 3.49-.749-.436 2.182-3.491-1.309-.81.374-.624 3.366 2.057zM104.983 13.535l-.935 1.31c.187.061.436.248.686.435.872.624 1.62 1.559.872 2.619-.311.436-.685.56-1.059.623-.686.062-1.434-.374-2.057-.748-.374-.312-.748-.561-.998-.81l2.805-3.928.686.5zm-2.431 3.429c.125.124.249.249.499.436.561.374 1.371.686 1.807.062.499-.685-.124-1.309-.623-1.745-.187-.125-.374-.25-.561-.312l-1.122 1.559zM110.158 17.587c.311.187.81.56 1.184.935.623.561 1.496 1.558.81 2.306-.374.437-.997.437-1.496.125.437.561.561 1.184.125 1.683-.873.935-2.12 0-2.868-.623-.374-.374-.81-.748-.997-.935l3.242-3.491zm-2.182 3.678l.498.498c.437.374 1.185.873 1.621.374.499-.498.063-1.122-.561-1.683l-.499-.436-1.059 1.247zm1.496-1.621l.499.436c.498.437 1.122.748 1.496.312.311-.374.187-.81-.499-1.371-.187-.187-.374-.312-.561-.437l-.935 1.06zM114.646 21.7l-1.496 1.372c-.561.499-.935.873-1.434 1.31.623-.188.997-.312 1.621-.437l2.867-.623.686.748-3.491 3.304-.561-.624 1.496-1.371c.561-.561.873-.81 1.496-1.31-.685.188-1.06.312-1.621.437-.872.187-1.87.436-2.867.623l-.686-.748 3.429-3.241.561.56zM120.318 28.371l-3.241 2.556.311.374-1.745 1.309-.436-.561 1.184-.997-2.057-2.619-1.247.936-.436-.562 1.683-1.371.249.312c.374 0 .748-.125 1.06-.25a7.954 7.954 0 001.683-.997l.998-.748 1.994 2.618zm-2.68-1.06c-.499.374-1.06.686-1.559.935-.311.125-.623.187-.935.25l1.372 1.745 2.743-2.182-.998-1.246-.623.498zM119.446 31.613c-.998.685-.998 1.558-.499 2.306.374.499.623.748.935.997l-.436.5c-.312-.188-.686-.562-1.122-1.185-.811-1.247-.499-2.494.685-3.304 1.185-.81 2.618-.748 3.429.436.872 1.31-.063 2.431-.811 2.93-.124.125-.249.187-.374.187l-1.807-2.867zm1.994 1.807c.499-.311 1.06-.997.499-1.807-.499-.748-1.371-.624-1.932-.312l1.433 2.12zM124.245 39.156c-1.558.872-2.867.124-3.428-.873-.624-1.122-.25-2.494 1.059-3.242 1.434-.748 2.743-.311 3.429.873.623 1.247.249 2.556-1.06 3.242zm-1.932-3.304c-.935.498-1.309 1.433-.935 2.181.374.748 1.371.935 2.368.374.686-.373 1.434-1.246.935-2.181-.498-.935-1.558-.81-2.368-.374zM128.485 72.942c-.125-.312-.25-.997-.25-1.808.063-1.87 1.372-3.241 3.554-3.179 2.119.125 3.49 1.559 3.366 3.678-.063.81-.25 1.371-.374 1.559l-.686-.25c.187-.312.312-.81.312-1.371.062-1.559-.873-2.68-2.681-2.743-1.621-.063-2.743.81-2.805 2.431 0 .499.062 1.06.187 1.434l-.623.25zM132.911 74.563l-.125 1.06-2.556.498c-.374.063-.997.187-1.371.25.311.187 1.059.56 1.558.81l1.995 1.06-.125 1.06-4.8-.375.125-.81 2.306.25c.499.062 1.123.062 1.746.186-.436-.187-.81-.374-1.496-.748l-2.307-1.246.063-.624 2.493-.498c.499-.063 1.185-.188 1.683-.25v-.062a19.495 19.495 0 00-1.683-.312l-2.244-.436.125-.81 4.613.997zM128.547 84.786c-1.746-.436-2.182-1.807-1.933-2.93.312-1.246 1.497-1.994 2.93-1.683 1.559.374 2.244 1.621 1.933 2.93-.312 1.372-1.496 1.995-2.93 1.683zm.873-3.74c-.998-.25-1.933.125-2.12.997-.187.81.437 1.621 1.496 1.87.811.188 1.87.063 2.12-.997.187-.997-.624-1.683-1.496-1.87zM129.482 89.649l-.685-.187.436-1.434-3.927-1.247.249-.81 3.927 1.246.437-1.433.685.187-1.122 3.678zM127.674 90.022c.561.25 1.06.437 1.496.561l-.311.748-.811-.249c.437.561.499 1.184.187 1.933-.436 1.06-1.683 1.496-3.054.934-1.621-.685-1.995-1.994-1.559-2.992.25-.56.686-.997 1.247-1.06l-2.431-.997.312-.81 4.924 1.932zm-1.558.312c-.125-.062-.249-.062-.374-.125-.624-.062-1.185.25-1.434.81-.374.873.125 1.621 1.185 2.058.872.374 1.87.187 2.181-.624.25-.56.063-1.246-.498-1.62-.063-.063-.187-.125-.312-.187l-.748-.312zM124.246 95.32c-1.06-.498-1.87-.061-2.244.687-.312.56-.374.935-.374 1.309l-.624-.125c0-.312.125-.873.499-1.558.686-1.31 1.933-1.683 3.242-.998 1.309.686 1.932 1.933 1.246 3.18-.748 1.37-2.119 1.121-2.929.747-.188-.062-.25-.187-.375-.187l1.559-3.054zm-.623 2.557c.498.25 1.371.436 1.807-.437.437-.81-.124-1.496-.623-1.87l-1.184 2.307zM122.625 103.425l-.624-.374.811-1.309-3.491-2.182.436-.748 3.491 2.182.81-1.31.624.375-2.057 3.366zM121.565 104.921l-1.309-.935c-.062.187-.249.436-.436.686-.624.872-1.559 1.62-2.618.872-.437-.311-.561-.685-.624-1.059-.062-.686.374-1.434.748-2.057.312-.374.561-.748.811-.998l3.927 2.805-.499.686zm-3.428-2.431c-.125.125-.25.249-.437.499-.374.561-.685 1.371-.062 1.807.686.499 1.309-.124 1.745-.623.125-.187.25-.374.312-.561l-1.558-1.122zM117.513 110.157a6.98 6.98 0 01-.935 1.185c-.561.623-1.558 1.496-2.306.81-.437-.374-.437-.997-.125-1.496-.561.436-1.184.561-1.683.125-.935-.873 0-2.12.623-2.868.374-.374.748-.81.935-.997l3.491 3.241zm-3.678-2.244l-.498.499c-.374.436-.873 1.184-.374 1.621.498.498 1.122.062 1.683-.561l.436-.499-1.247-1.06zm1.683 1.496l-.436.499c-.436.499-.748 1.122-.312 1.496.374.312.811.187 1.372-.499.187-.187.312-.374.436-.561l-1.06-.935zM113.399 114.583l-1.371-1.496c-.499-.561-.873-.935-1.309-1.434.187.624.311.998.436 1.621l.623 2.868-.748.685-3.303-3.49.623-.561 1.371 1.496c.561.561.811.872 1.309 1.496-.187-.686-.311-1.06-.436-1.621-.187-.873-.436-1.87-.623-2.868l.748-.685 3.304 3.491-.624.498zM106.792 120.256l-2.556-3.242-.374.312-1.309-1.745.561-.437.997 1.185 2.618-2.058-.935-1.246.561-.437 1.372 1.683-.312.25c0 .374.125.748.249 1.06.25.561.561 1.122.998 1.683l.748.997-2.618 1.995zm.997-2.618a10.289 10.289 0 01-.935-1.559c-.125-.311-.187-.623-.249-.935l-1.746 1.372 2.182 2.742 1.247-.997-.499-.623zM103.488 119.446c-.686-.998-1.559-.998-2.307-.499-.499.374-.748.623-.997.935l-.499-.436c.187-.312.561-.686 1.184-1.122 1.247-.811 2.494-.499 3.304.685.811 1.185.748 2.618-.436 3.429-1.309.873-2.431-.063-2.93-.811-.125-.124-.187-.249-.187-.374l2.868-1.807zm-1.808 1.932c.312.499.997 1.06 1.808.499.748-.499.623-1.372.311-1.933l-2.119 1.434zM95.945 124.183c-.873-1.558-.125-2.867.873-3.428 1.122-.624 2.493-.25 3.241 1.059.748 1.434.312 2.743-.873 3.429-1.246.686-2.556.249-3.241-1.06zm3.304-1.87c-.499-.935-1.434-1.309-2.182-.935-.748.374-.935 1.371-.374 2.369.374.685 1.247 1.434 2.182.935.872-.499.81-1.559.374-2.369z"/><path d="M128.485 72.942c-.125-.312-.25-.997-.25-1.808.063-1.87 1.372-3.241 3.554-3.179 2.119.125 3.49 1.559 3.366 3.678-.063.81-.25 1.371-.374 1.559l-.686-.25c.187-.312.312-.81.312-1.371.062-1.559-.873-2.68-2.681-2.743-1.621-.063-2.743.81-2.805 2.431 0 .499.062 1.06.187 1.434l-.623.25zM132.911 74.563l-.125 1.06-2.556.498c-.374.063-.997.187-1.371.25.311.187 1.059.56 1.558.81l1.995 1.06-.125 1.06-4.8-.375.125-.81 2.306.25c.499.062 1.123.062 1.746.186-.436-.187-.81-.374-1.496-.748l-2.307-1.246.063-.624 2.493-.498c.499-.063 1.185-.188 1.683-.25v-.062a19.495 19.495 0 00-1.683-.312l-2.244-.436.125-.81 4.613.997zM128.547 84.786c-1.746-.436-2.182-1.807-1.933-2.93.312-1.246 1.497-1.994 2.93-1.683 1.559.374 2.244 1.621 1.933 2.93-.312 1.372-1.496 1.995-2.93 1.683zm.873-3.74c-.998-.25-1.933.125-2.12.997-.187.81.437 1.621 1.496 1.87.811.188 1.87.063 2.12-.997.187-.997-.624-1.683-1.496-1.87zM129.482 89.649l-.685-.187.436-1.434-3.927-1.247.249-.81 3.927 1.246.437-1.433.685.187-1.122 3.678zM127.674 90.022c.561.25 1.06.437 1.496.561l-.311.748-.811-.249c.437.561.499 1.184.187 1.933-.436 1.06-1.683 1.496-3.054.934-1.621-.685-1.995-1.994-1.559-2.992.25-.56.686-.997 1.247-1.06l-2.431-.997.312-.81 4.924 1.932zm-1.558.312c-.125-.062-.249-.062-.374-.125-.624-.062-1.185.25-1.434.81-.374.873.125 1.621 1.185 2.058.872.374 1.87.187 2.181-.624.25-.56.063-1.246-.498-1.62-.063-.063-.187-.125-.312-.187l-.748-.312zM124.246 95.32c-1.06-.498-1.87-.061-2.244.687-.312.56-.374.935-.374 1.309l-.624-.125c0-.312.125-.873.499-1.558.686-1.31 1.933-1.683 3.242-.998 1.309.686 1.932 1.933 1.246 3.18-.748 1.37-2.119 1.121-2.929.747-.188-.062-.25-.187-.375-.187l1.559-3.054zm-.623 2.557c.498.25 1.371.436 1.807-.437.437-.81-.124-1.496-.623-1.87l-1.184 2.307zM122.625 103.425l-.624-.374.811-1.309-3.491-2.182.436-.748 3.491 2.182.81-1.31.624.375-2.057 3.366zM121.565 104.921l-1.309-.935c-.062.187-.249.436-.436.686-.624.872-1.559 1.62-2.618.872-.437-.311-.561-.685-.624-1.059-.062-.686.374-1.434.748-2.057.312-.374.561-.748.811-.998l3.927 2.805-.499.686zm-3.428-2.431c-.125.125-.25.249-.437.499-.374.561-.685 1.371-.062 1.807.686.499 1.309-.124 1.745-.623.125-.187.25-.374.312-.561l-1.558-1.122zM117.513 110.157a6.98 6.98 0 01-.935 1.185c-.561.623-1.558 1.496-2.306.81-.437-.374-.437-.997-.125-1.496-.561.436-1.184.561-1.683.125-.935-.873 0-2.12.623-2.868.374-.374.748-.81.935-.997l3.491 3.241zm-3.678-2.244l-.498.499c-.374.436-.873 1.184-.374 1.621.498.498 1.122.062 1.683-.561l.436-.499-1.247-1.06zm1.683 1.496l-.436.499c-.436.499-.748 1.122-.312 1.496.374.312.811.187 1.372-.499.187-.187.312-.374.436-.561l-1.06-.935zM113.399 114.583l-1.371-1.496c-.499-.561-.873-.935-1.309-1.434.187.624.311.998.436 1.621l.623 2.868-.748.685-3.303-3.49.623-.561 1.371 1.496c.561.561.811.872 1.309 1.496-.187-.686-.311-1.06-.436-1.621-.187-.873-.436-1.87-.623-2.868l.748-.685 3.304 3.491-.624.498zM106.792 120.256l-2.556-3.242-.374.312-1.309-1.745.561-.437.997 1.185 2.618-2.058-.935-1.246.561-.437 1.372 1.683-.312.25c0 .374.125.748.249 1.06.25.561.561 1.122.998 1.683l.748.997-2.618 1.995zm.997-2.618a10.289 10.289 0 01-.935-1.559c-.125-.311-.187-.623-.249-.935l-1.746 1.372 2.182 2.742 1.247-.997-.499-.623zM103.488 119.446c-.686-.998-1.559-.998-2.307-.499-.499.374-.748.623-.997.935l-.499-.436c.187-.312.561-.686 1.184-1.122 1.247-.811 2.494-.499 3.304.685.811 1.185.748 2.618-.436 3.429-1.309.873-2.431-.063-2.93-.811-.125-.124-.187-.249-.187-.374l2.868-1.807zm-1.808 1.932c.312.499.997 1.06 1.808.499.748-.499.623-1.372.311-1.933l-2.119 1.434zM95.945 124.183c-.873-1.558-.125-2.867.873-3.428 1.122-.624 2.493-.25 3.241 1.059.748 1.434.312 2.743-.873 3.429-1.246.686-2.556.249-3.241-1.06zm3.304-1.87c-.499-.935-1.434-1.309-2.182-.935-.748.374-.935 1.371-.374 2.369.374.685 1.247 1.434 2.182.935.872-.499.81-1.559.374-2.369zM62.22 128.422c.312-.124.997-.249 1.808-.249 1.87.062 3.241 1.371 3.179 3.553-.125 2.12-1.558 3.491-3.678 3.366-.81-.062-1.371-.249-1.558-.374l.25-.685c.31.187.81.311 1.37.311 1.559.063 2.681-.872 2.743-2.68.063-1.621-.81-2.743-2.43-2.805-.5 0-1.06.062-1.435.187l-.249-.624zM60.6 132.91l-1.06-.125-.499-2.555c-.062-.374-.187-.998-.25-1.372-.186.312-.56 1.06-.81 1.559l-1.06 1.994-1.06-.124.375-4.8.81.124-.25 2.307c-.062.499-.062 1.122-.186 1.745.187-.436.374-.81.748-1.496l1.247-2.306.623.062.499 2.494c.062.498.187 1.184.25 1.683h.061c.125-.561.25-1.185.312-1.683l.436-2.244.81.124-.997 4.613zM50.377 128.484c.436-1.745 1.807-2.181 2.93-1.932 1.246.312 1.994 1.496 1.682 2.93-.373 1.558-1.62 2.244-2.93 1.932-1.37-.249-2.056-1.496-1.682-2.93zm3.677.873c.25-.997-.124-1.932-.997-2.119-.81-.187-1.62.436-1.87 1.496-.187.81-.062 1.87.997 2.119.998.25 1.683-.623 1.87-1.496zM45.452 129.419l.187-.685 1.433.436 1.247-3.927.81.249-1.246 3.927 1.434.437-.188.686-3.677-1.123zM45.14 127.612c-.25.561-.437 1.059-.561 1.496l-.748-.312.249-.81c-.561.436-1.184.498-1.932.187-1.06-.437-1.497-1.684-.936-3.055.686-1.621 1.995-1.995 2.993-1.558.56.249.997.685 1.06 1.246l.997-2.431.81.312-1.932 4.925zm-.312-1.497c.062-.124.062-.249.125-.374.062-.623-.25-1.184-.81-1.433-.873-.374-1.621.124-2.058 1.184-.374.873-.187 1.87.624 2.182.56.249 1.246.062 1.62-.499.063-.062.125-.187.187-.311l.312-.749zM39.779 124.245c.498-1.059.062-1.87-.686-2.244-.561-.311-.935-.374-1.31-.374l.126-.623c.311 0 .872.125 1.558.499 1.31.685 1.683 1.932.997 3.241-.685 1.309-1.932 1.933-3.179 1.247-1.371-.748-1.122-2.12-.748-2.93.063-.187.187-.249.187-.374l3.055 1.558zm-2.556-.623c-.25.499-.437 1.371.436 1.808.81.436 1.496-.125 1.87-.624l-2.306-1.184zM31.675 122.562l.374-.623 1.309.81 2.182-3.491.748.437-2.182 3.491 1.309.81-.374.623-3.366-2.057zM30.179 121.565l.935-1.309c-.187-.062-.437-.249-.686-.436-.873-.624-1.62-1.559-.873-2.619.312-.436.686-.561 1.06-.623.686-.062 1.434.374 2.057.748.374.312.748.561.998.81l-2.806 3.928-.685-.499zm2.43-3.491a4.035 4.035 0 00-.498-.436c-.56-.374-1.371-.686-1.808-.063-.498.686.125 1.309.624 1.746.187.125.374.249.56.312l1.123-1.559zM25.005 117.513a6.99 6.99 0 01-1.184-.935c-.624-.561-1.496-1.558-.81-2.306.373-.437.997-.437 1.495-.125-.436-.561-.56-1.184-.124-1.683.872-.935 2.12 0 2.867.623.374.374.81.748.998.935l-3.242 3.491zm.686-2.057l-.499-.436c-.499-.437-1.122-.748-1.496-.312-.312.374-.187.81.499 1.371.187.188.374.312.56.437l.936-1.06zm1.496-1.621l-.499-.498c-.436-.374-1.184-.873-1.62-.374-.5.498-.063 1.122.56 1.683l.5.436 1.059-1.247zM20.517 113.399l1.496-1.372c.56-.498.935-.872 1.433-1.309-.623.187-.997.312-1.62.437l-2.868.623-.685-.748 3.49-3.304.561.623-1.496 1.372c-.56.561-.872.81-1.496 1.309.686-.187 1.06-.312 1.621-.436.873-.187 1.87-.437 2.867-.624l.686.748-3.49 3.304-.5-.623zM14.844 106.729l3.242-2.556-.312-.374 1.745-1.309.437.561-1.184.997 2.057 2.619 1.246-.935.437.561-1.683 1.371-.25-.312c-.374 0-.748.125-1.06.25a7.948 7.948 0 00-1.683.997l-.997.748-1.995-2.618zm2.68.997c.5-.374 1.06-.685 1.56-.935.31-.124.622-.187.934-.249l-1.371-1.746-2.743 2.182.997 1.247.624-.499zM15.654 103.487c.997-.685.997-1.558.499-2.306-.374-.499-.624-.748-.935-.997l.436-.5c.312.188.686.562 1.122 1.185.81 1.247.499 2.494-.686 3.304-1.184.81-2.618.748-3.428-.436-.873-1.309.062-2.431.81-2.93.125-.125.25-.187.374-.187l1.808 2.867zm-1.932-1.807c-.5.311-1.06.997-.5 1.807.5.748 1.372.624 1.933.312l-1.433-2.119zM10.917 95.882c1.559-.872 2.868-.124 3.429.873.623 1.122.249 2.494-1.06 3.242-1.434.748-2.743.311-3.429-.873-.685-1.185-.249-2.494 1.06-3.242zm1.87 3.367c.935-.5 1.31-1.434.935-2.182-.374-.748-1.371-.935-2.368-.374-.686.374-1.434 1.246-.935 2.181.56.873 1.558.81 2.368.375zM6.678 62.158c.125.311.25.997.25 1.808-.063 1.87-1.372 3.241-3.554 3.179-2.12-.125-3.49-1.559-3.366-3.678.062-.81.25-1.371.374-1.559l.686.25c-.187.311-.312.81-.312 1.371-.062 1.559.873 2.68 2.68 2.743 1.621.062 2.743-.81 2.806-2.431 0-.499-.063-1.06-.187-1.434l.623-.25zM2.252 60.537l.125-1.06 2.555-.498c.374-.063.998-.188 1.372-.25-.374-.187-1.06-.56-1.559-.81l-1.994-1.06.124-1.06 4.8.374-.124.81-2.307-.249c-.499-.062-1.122-.062-1.745-.187.498.25.872.437 1.558.748l2.307 1.247-.063.623-2.493.5c-.499.124-1.247.249-1.683.31v.063c.56.125 1.184.25 1.683.312l2.244.436-.125.81-4.675-1.06zM6.615 50.314c1.746.436 2.182 1.808 1.933 2.93-.312 1.246-1.496 1.994-2.93 1.683-1.559-.374-2.244-1.621-1.933-2.93.312-1.371 1.496-2.057 2.93-1.683zm-.873 3.74c.998.25 1.933-.125 2.12-.997.187-.81-.436-1.621-1.496-1.87-.81-.188-1.87-.063-2.12.997-.187.997.624 1.62 1.496 1.87zM5.68 45.452l.686.187-.437 1.433 3.928 1.247-.312.873-3.927-1.247-.437 1.434-.685-.187 1.184-3.74zM7.488 45.078a11.61 11.61 0 00-1.496-.561l.312-.748.81.249c-.436-.561-.498-1.184-.187-1.932.437-1.06 1.683-1.496 3.055-.935 1.62.685 1.995 1.994 1.558 2.992-.25.56-.685.997-1.247 1.06l2.432.997-.312.81-4.925-1.932zm1.496-.312c.125.062.25.062.374.125.624.062 1.185-.25 1.434-.81.374-.873-.124-1.621-1.184-2.058-.873-.374-1.87-.187-2.182.624-.25.56-.062 1.246.499 1.62.062.063.187.125.311.187l.748.312zM10.917 39.779c1.06.499 1.87.062 2.245-.686.311-.56.373-.935.373-1.309l.624.125c0 .312-.125.873-.499 1.558-.685 1.31-1.932 1.683-3.241.998-1.31-.686-1.933-1.933-1.247-3.18.748-1.371 2.12-1.122 2.93-.748.187.063.25.187.374.187l-1.559 3.055zm.624-2.618c-.499-.25-1.372-.437-1.808.436-.436.81.125 1.496.623 1.87l1.185-2.306zM12.538 31.675l.623.374-.81 1.31 3.49 2.18-.436.749-3.49-2.182-.811 1.31-.623-.375 2.057-3.366zM13.597 30.116l1.31.936c.062-.188.249-.437.436-.686.623-.873 1.558-1.621 2.618-.873.436.312.561.686.623 1.06.063.685-.374 1.434-.748 2.057-.311.374-.56.748-.81.997l-3.927-2.742.498-.749zm3.429 2.494c.125-.125.25-.25.436-.499.374-.56.686-1.371.063-1.807-.686-.5-1.31.124-1.746.623-.125.187-.25.374-.312.56l1.559 1.123zM17.65 24.943c.186-.312.56-.81.934-1.185.561-.623 1.559-1.496 2.307-.81.436.374.436.997.125 1.496.56-.436 1.184-.561 1.683-.125.935.873 0 2.12-.624 2.868-.374.374-.748.81-.935.997l-3.49-3.241zm1.994.685l.437-.498c.436-.5.748-1.122.311-1.496-.374-.312-.81-.188-1.371.498a3.426 3.426 0 00-.437.561l1.06.935zm1.683 1.496l.499-.498c.374-.437.873-1.185.374-1.621-.499-.499-1.122-.062-1.683.561l-.436.499 1.246 1.06zM21.764 20.517l1.37 1.496c.5.561.874.935 1.31 1.434-.187-.624-.312-.998-.436-1.621l-.624-2.868.748-.685 3.304 3.49-.623.562-1.372-1.497c-.56-.56-.81-.872-1.309-1.496.187.686.312 1.06.437 1.621.187.873.436 1.87.623 2.868l-.748.685-3.304-3.49.623-.5zM28.371 14.844l2.556 3.242.374-.312 1.31 1.745-.562.437-.872-1.185-2.619 2.057.936 1.247-.562.436-1.371-1.683.312-.249c0-.374-.125-.748-.25-1.06a7.952 7.952 0 00-.997-1.683l-.748-.997 2.493-1.995zm-.997 2.618c.374.499.686 1.06.935 1.559.125.311.187.623.25.935l1.745-1.372-2.182-2.743-1.247.998.499.623zM31.675 15.654c.686.998 1.558.998 2.306.499.5-.374.749-.623.998-.935l.499.436c-.187.312-.561.686-1.185 1.122-1.246.81-2.493.5-3.304-.685-.81-1.185-.748-2.619.437-3.429 1.309-.873 2.43.063 2.93.81.124.125.187.25.187.375l-2.868 1.807zm1.808-1.932c-.312-.499-.997-1.06-1.808-.499-.748.499-.623 1.372-.312 1.933l2.12-1.434zM39.218 10.917c.873 1.558.125 2.867-.873 3.428-1.122.624-2.493.25-3.241-1.06-.748-1.433-.312-2.742.873-3.428 1.246-.686 2.555-.25 3.241 1.06zm-3.304 1.87c.499.935 1.434 1.31 2.182.935.748-.374.935-1.371.374-2.369-.374-.685-1.247-1.433-2.182-.935-.935.499-.872 1.559-.374 2.369z"/><path d="M6.678 62.158c.125.311.25.997.25 1.808-.063 1.87-1.372 3.241-3.554 3.179-2.12-.125-3.49-1.559-3.366-3.678.062-.81.25-1.371.374-1.559l.686.25c-.187.311-.312.81-.312 1.371-.062 1.559.873 2.68 2.68 2.743 1.621.062 2.743-.81 2.806-2.431 0-.499-.063-1.06-.187-1.434l.623-.25zM2.252 60.537l.125-1.06 2.555-.498c.374-.063.998-.188 1.372-.25-.374-.187-1.06-.56-1.559-.81l-1.994-1.06.124-1.06 4.8.374-.124.81-2.307-.249c-.499-.062-1.122-.062-1.745-.187.498.25.872.437 1.558.748l2.307 1.247-.063.623-2.493.5c-.499.124-1.247.249-1.683.31v.063c.56.125 1.184.25 1.683.312l2.244.436-.125.81-4.675-1.06zM6.615 50.314c1.746.436 2.182 1.808 1.933 2.93-.312 1.246-1.496 1.994-2.93 1.683-1.559-.374-2.244-1.621-1.933-2.93.312-1.371 1.496-2.057 2.93-1.683zm-.873 3.74c.998.25 1.933-.125 2.12-.997.187-.81-.436-1.621-1.496-1.87-.81-.188-1.87-.063-2.12.997-.187.997.624 1.62 1.496 1.87zM5.68 45.452l.686.187-.437 1.433 3.928 1.247-.312.873-3.927-1.247-.437 1.434-.685-.187 1.184-3.74zM7.488 45.078a11.61 11.61 0 00-1.496-.561l.312-.748.81.249c-.436-.561-.498-1.184-.187-1.932.437-1.06 1.683-1.496 3.055-.935 1.62.685 1.995 1.994 1.558 2.992-.25.56-.685.997-1.247 1.06l2.432.997-.312.81-4.925-1.932zm1.496-.312c.125.062.25.062.374.125.624.062 1.185-.25 1.434-.81.374-.873-.124-1.621-1.184-2.058-.873-.374-1.87-.187-2.182.624-.25.56-.062 1.246.499 1.62.062.063.187.125.311.187l.748.312zM10.917 39.779c1.06.499 1.87.062 2.245-.686.311-.56.373-.935.373-1.309l.624.125c0 .312-.125.873-.499 1.558-.685 1.31-1.932 1.683-3.241.998-1.31-.686-1.933-1.933-1.247-3.18.748-1.371 2.12-1.122 2.93-.748.187.063.25.187.374.187l-1.559 3.055zm.624-2.618c-.499-.25-1.372-.437-1.808.436-.436.81.125 1.496.623 1.87l1.185-2.306zM12.538 31.675l.623.374-.81 1.31 3.49 2.18-.436.749-3.49-2.182-.811 1.31-.623-.375 2.057-3.366zM13.597 30.116l1.31.936c.062-.188.249-.437.436-.686.623-.873 1.558-1.621 2.618-.873.436.312.561.686.623 1.06.063.685-.374 1.434-.748 2.057-.311.374-.56.748-.81.997l-3.927-2.742.498-.749zm3.429 2.494c.125-.125.25-.25.436-.499.374-.56.686-1.371.063-1.807-.686-.5-1.31.124-1.746.623-.125.187-.25.374-.312.56l1.559 1.123zM17.65 24.943c.186-.312.56-.81.934-1.185.561-.623 1.559-1.496 2.307-.81.436.374.436.997.125 1.496.56-.436 1.184-.561 1.683-.125.935.873 0 2.12-.624 2.868-.374.374-.748.81-.935.997l-3.49-3.241zm1.994.685l.437-.498c.436-.5.748-1.122.311-1.496-.374-.312-.81-.188-1.371.498a3.426 3.426 0 00-.437.561l1.06.935zm1.683 1.496l.499-.498c.374-.437.873-1.185.374-1.621-.499-.499-1.122-.062-1.683.561l-.436.499 1.246 1.06zM21.764 20.517l1.37 1.496c.5.561.874.935 1.31 1.434-.187-.624-.312-.998-.436-1.621l-.624-2.868.748-.685 3.304 3.49-.623.562-1.372-1.497c-.56-.56-.81-.872-1.309-1.496.187.686.312 1.06.437 1.621.187.873.436 1.87.623 2.868l-.748.685-3.304-3.49.623-.5zM28.371 14.844l2.556 3.242.374-.312 1.31 1.745-.562.437-.872-1.185-2.619 2.057.936 1.247-.562.436-1.371-1.683.312-.249c0-.374-.125-.748-.25-1.06a7.952 7.952 0 00-.997-1.683l-.748-.997 2.493-1.995zm-.997 2.618c.374.499.686 1.06.935 1.559.125.311.187.623.25.935l1.745-1.372-2.182-2.743-1.247.998.499.623zM31.675 15.654c.686.998 1.558.998 2.306.499.5-.374.749-.623.998-.935l.499.436c-.187.312-.561.686-1.185 1.122-1.246.81-2.493.5-3.304-.685-.81-1.185-.748-2.619.437-3.429 1.309-.873 2.43.063 2.93.81.124.125.187.25.187.375l-2.868 1.807zm1.808-1.932c-.312-.499-.997-1.06-1.808-.499-.748.499-.623 1.372-.312 1.933l2.12-1.434zM39.218 10.917c.873 1.558.125 2.867-.873 3.428-1.122.624-2.493.25-3.241-1.06-.748-1.433-.312-2.742.873-3.428 1.246-.686 2.555-.25 3.241 1.06zm-3.304 1.87c.499.935 1.434 1.31 2.182.935.748-.374.935-1.371.374-2.369-.374-.685-1.247-1.433-2.182-.935-.935.499-.872 1.559-.374 2.369z"/></svg>