<?xml version="1.0" encoding="utf-8"?><svg viewBox="0 0 191 136" xmlns="http://www.w3.org/2000/svg" xmlns:xlink="http://www.w3.org/1999/xlink"><style>:root>svg{display:none}:root>svg:target{display:block}</style><svg fill="none" viewBox="0 0 37 37" id="arrow" xmlns="http://www.w3.org/2000/svg"><path d="M7.624 7.862h21.051v21.051M7.624 28.913l21.051-21.05"/></svg><svg fill="none" viewBox="0 0 191 46" id="logo" xmlns="http://www.w3.org/2000/svg"><path d="M62.007 5.91h-6.862v15.705h3.167v-5.142h3.695c3.607 0 5.807-1.215 5.807-5.235 0-4.02-2.288-5.328-5.807-5.328zm.088 7.572h-3.783v-4.58h3.783c1.584 0 2.376.467 2.376 2.336.087 1.777-.704 2.244-2.376 2.244zM80.66 18.717h-7.391v-3.552h6.598v-2.898H73.27V8.902h7.302V5.911h-10.47v15.704H80.66v-2.898zM87.433 21.615h3.168V8.995h4.575V5.911h-12.23v3.084h4.487v12.62zM106.877 21.615h3.695l-4.399-5.889c1.76-.56 3.255-1.963 3.255-4.674 0-4.02-2.991-5.141-5.894-5.141h-6.071v15.704h3.167V16.1h2.288l3.959 5.515zm-6.335-12.713h3.08c1.319 0 2.463.56 2.463 2.244 0 1.589-1.144 2.243-2.463 2.243h-3.08V8.902zM119.195 5.63c-5.279 0-7.831 3.926-7.831 8.133 0 4.3 2.64 8.133 7.831 8.133 5.278 0 7.83-3.927 7.83-8.133 0-4.207-2.64-8.133-7.83-8.133zm0 13.18c-3.08 0-4.663-2.243-4.663-5.047s1.583-5.048 4.663-5.048c3.079 0 4.575 2.244 4.575 5.048s-1.584 5.048-4.575 5.048zM139.166 18.25c-.439.187-.967.28-1.583.28-2.2 0-5.103-1.028-5.103-5.235 0-3.645 2.639-5.14 5.279-5.14 1.495 0 2.991.467 4.135 1.214V6.191a10.952 10.952 0 00-4.575-1.028c-4.047 0-8.094 2.43-8.094 8.133 0 5.795 3.959 8.132 8.094 8.132 1.672 0 3.343-.374 4.839-1.028v-7.759h-2.992v5.609zM157.026 10.585c0-4.02-2.991-5.142-5.894-5.142h-6.071v15.705h3.167v-5.515h2.288l3.959 5.515h3.695l-4.399-5.89c1.848-.56 3.255-1.962 3.255-4.673zm-5.718 2.337h-3.08V8.435h3.08c1.319 0 2.463.56 2.463 2.243 0 1.59-1.144 2.244-2.463 2.244zM165.912 5.443l-6.07 15.705h3.255l1.056-2.898h6.774l1.056 2.898h3.255l-5.982-15.705h-3.344zm-.703 10.003l2.023-5.61c.088-.28.264-.654.352-1.214.088.56.176.934.352 1.215l2.112 5.609h-4.839zM182.717 5.443h-5.543v15.705h5.543c5.279 0 7.742-3.272 7.742-7.852 0-4.487-2.463-7.853-7.742-7.853zm0 12.807h-2.375V8.435h2.375c2.904 0 4.487 1.682 4.487 4.86 0 3.272-1.583 4.955-4.487 4.955zM48.452 25.216v-.197c0-.098 0-.098-.092-.197l-5.918-14.676c0-.099 0-.197-.093-.394l-2.404-5.91v-.099s0-.098-.092-.098l-.093-.099-.092-.098h-.092L32.456.296c-.093 0-.093 0-.185-.099h-.093-.185L16.46 0h-.185c-.092 0-.092 0-.185.099L9.062 3.25h-.093s-.092 0-.092.098l-.093.099-.092.098v.099s0 .098-.093.098l-2.496 5.91c0 .099-.093.197-.093.394L.092 24.724c0 .098 0 .098-.092.197v.591c0 .098 0 .098.092.197v.098l.093.099c0 .098.092.098.185.197l6.473 5.023 16.459 14.382s0 .098.092.098c.185.296.462.394.74.394h.092c.278 0 .555-.098.74-.394 0 0 0-.098.092-.098l16.09-13.865-.093-.098c-.37-.493-.647-1.084-.74-1.675v-.295L24.226 43.439 8.876 30.141l4.44-5.811 5.547 8.668v2.955c0 .394.185.69.462.886l4.161 2.562c.185.196.463.295.74.295h.093c.277 0 .554-.099.74-.295l4.16-2.562c.278-.197.463-.59.463-.886v-2.955l5.548-8.668 5.733 7.486.74-.69 6.472-5.023c.092 0 .092-.099.185-.099 0 0 .092-.098.092-.197 0-.098.093-.098.093-.197-.185-.197-.185-.295-.093-.394zm-20.897 8.176v1.871l-3.421 2.069-3.422-2.069v-1.871l3.422-.985 3.42.985zM15.812 16.844l-8.6 11.918-4.623-3.644L13.777 15.07l2.035 1.773zm-7.49-7.19l1.572-3.842 6.103 4.038-2.59 2.463-5.085-2.66zm9.709-.986l-6.38-4.235 4.53-2.069 3.977 6.304H18.03zm10.264 0l3.976-6.304 4.53 2.069-6.38 4.235h-2.126zm-10.634 9.16h1.387l-1.664 7.191V25.512c0 .098 0 .098.092.197v.098l.093.099.092-.099h-.092l.092.099v.098l4.623 4.827-2.034.59-5.825-9.061 3.236-4.531zm-.092-2.166l-2.404-2.167 2.958-2.66h2.59l-1.11 4.827h-2.034zm8.322-6.994h-3.422l-4.068-6.501h11.65l-4.16 6.501zm-.185 2.167l3.143 13.298h-9.154l3.052-13.298h2.959zm5.085 15.07l.093-.098s.092-.098.092-.197c0-.098.093-.098.093-.197v-.197-.098-.197l-1.665-7.19h1.387l3.237 4.53-5.826 9.062-2.034-.59 4.623-4.827zM28.85 15.663l-1.11-4.827h2.59l2.959 2.66-2.404 2.167h-2.035zm-1.294 10.54l-3.421 3.447-3.422-3.448h6.843zm7.397-13.89L32.363 9.85l6.103-4.038 1.572 3.841-5.086 2.66zm10.819 12.806l-4.623 3.644-8.6-11.918 2.034-1.773 11.189 10.047zM36.617 13.79l4.253-2.167 3.884 9.752-8.137-7.585zm-33.01 7.585l3.883-9.752 4.253 2.167-8.137 7.585z" fill="#192632"/><path d="M55.866 26.152v15.346h6.599c2.674 0 6.029-.811 6.029-4.297 0-2.258-1.425-3.376-2.938-3.815 1.36-.46 2.324-1.556 2.324-3.354 0-2.63-2.04-3.88-5.306-3.88h-6.708zm9.34 10.698c0 1.666-1.316 1.973-2.785 1.973h-3.289v-3.946h3.464c1.316 0 2.61.35 2.61 1.973zm-.593-6.248c0 1.184-.899 1.754-2.148 1.754h-3.31v-3.508h3.134c1.447 0 2.324.548 2.324 1.754zM71.115 26.152v15.346h3.288V26.152h-3.288zM81.195 41.498v-6.27h2.477l4.188 6.27h3.639l-5.262-7.87 4.977-7.476h-3.661l-3.88 6.094h-2.478v-6.094h-3.288v15.346h3.288zM93.284 26.152v15.346h10.94v-2.894h-7.652v-3.42h6.862v-2.872h-6.862v-3.266h7.52v-2.894H93.284z" fill="#FC0000"/></svg><svg fill="none" viewBox="0 0 191 46" id="logo-white" xmlns="http://www.w3.org/2000/svg"><path d="M62.007 5.91h-6.862v15.705h3.167v-5.142h3.695c3.608 0 5.807-1.215 5.807-5.234 0-4.02-2.287-5.329-5.807-5.329zm.088 7.572h-3.783v-4.58h3.783c1.584 0 2.376.467 2.376 2.337.088 1.776-.704 2.243-2.376 2.243zM80.66 18.717h-7.39v-3.552h6.598v-2.898h-6.599V8.902h7.302V5.911h-10.47v15.704H80.66v-2.898zM87.434 21.615H90.6V8.995h4.575V5.911h-12.23v3.084h4.488v12.62zM106.877 21.615h3.696l-4.4-5.889c1.76-.56 3.256-1.963 3.256-4.674 0-4.02-2.992-5.141-5.895-5.141h-6.07v15.704h3.167V16.1h2.287l3.959 5.515zm-6.334-12.713h3.079c1.32 0 2.464.56 2.464 2.244 0 1.589-1.144 2.243-2.464 2.243h-3.079V8.902zM119.195 5.63c-5.279 0-7.83 3.927-7.83 8.133 0 4.3 2.639 8.133 7.83 8.133 5.279 0 7.83-3.926 7.83-8.133 0-4.206-2.639-8.133-7.83-8.133zm0 13.181c-3.079 0-4.663-2.244-4.663-5.048s1.584-5.048 4.663-5.048 4.575 2.244 4.575 5.048-1.584 5.048-4.575 5.048zM139.167 18.25c-.44.187-.968.28-1.584.28-2.199 0-5.103-1.028-5.103-5.234 0-3.646 2.64-5.142 5.279-5.142 1.496 0 2.991.468 4.135 1.215V6.191a10.952 10.952 0 00-4.575-1.028c-4.047 0-8.094 2.43-8.094 8.133 0 5.795 3.959 8.132 8.094 8.132 1.672 0 3.343-.374 4.839-1.028v-7.759h-2.991v5.609zM157.027 10.585c0-4.02-2.992-5.142-5.895-5.142h-6.071v15.705h3.168v-5.515h2.287l3.959 5.515h3.695l-4.399-5.89c1.848-.56 3.256-1.962 3.256-4.673zm-5.719 2.337h-3.079V8.435h3.079c1.32 0 2.463.56 2.463 2.243 0 1.59-1.143 2.244-2.463 2.244zM165.913 5.443l-6.071 15.705h3.255l1.056-2.898h6.775l1.055 2.898h3.256l-5.983-15.705h-3.343zm-.704 10.003l2.023-5.61c.088-.28.264-.653.352-1.214.088.56.176.934.352 1.215l2.112 5.609h-4.839zM182.717 5.443h-5.542v15.705h5.542c5.279 0 7.743-3.272 7.743-7.852 0-4.487-2.464-7.853-7.743-7.853zm0 12.807h-2.375V8.435h2.375c2.904 0 4.487 1.682 4.487 4.86 0 3.272-1.583 4.955-4.487 4.955zM48.452 25.216v-.197c0-.098 0-.098-.092-.197l-5.918-14.676c0-.099 0-.197-.093-.394l-2.404-5.91v-.099s0-.098-.092-.098l-.093-.099-.092-.098h-.092L32.456.296c-.093 0-.093 0-.185-.099h-.093-.185L16.46 0h-.185c-.092 0-.092 0-.185.099L9.062 3.25h-.093s-.092 0-.092.098l-.093.099-.092.098v.099s0 .098-.093.098l-2.496 5.91c0 .099-.093.197-.093.394L.092 24.724c0 .098 0 .098-.092.197v.591c0 .098 0 .098.092.197v.098l.093.099c0 .098.092.098.185.197l6.473 5.023 16.459 14.382s0 .098.092.098c.185.296.462.394.74.394h.092c.278 0 .555-.098.74-.394 0 0 0-.098.092-.098l16.09-13.865-.093-.098c-.37-.493-.647-1.084-.74-1.675v-.295L24.226 43.439 8.876 30.141l4.44-5.811 5.547 8.668v2.955c0 .394.185.69.462.886l4.161 2.562c.185.196.463.295.74.295h.093c.277 0 .554-.099.74-.295l4.16-2.562c.278-.197.463-.59.463-.886v-2.955l5.548-8.668 5.733 7.486.74-.69 6.472-5.023c.092 0 .092-.099.185-.099 0 0 .092-.098.092-.197 0-.098.093-.098.093-.197-.185-.197-.185-.295-.093-.394zm-20.897 8.176v1.871l-3.421 2.069-3.422-2.069v-1.871l3.422-.985 3.42.985zM15.812 16.844l-8.6 11.918-4.623-3.644L13.777 15.07l2.035 1.773zm-7.49-7.19l1.572-3.842 6.103 4.038-2.59 2.463-5.085-2.66zm9.709-.986l-6.38-4.235 4.53-2.069 3.977 6.304H18.03zm10.264 0l3.976-6.304 4.53 2.069-6.38 4.235h-2.126zm-10.634 9.16h1.387l-1.664 7.191V25.512c0 .098 0 .098.092.197v.098l.093.099.092-.099h-.092l.092.099v.098l4.623 4.827-2.034.59-5.825-9.061 3.236-4.531zm-.092-2.166l-2.404-2.167 2.958-2.66h2.59l-1.11 4.827h-2.034zm8.322-6.994h-3.422l-4.068-6.501h11.65l-4.16 6.501zm-.185 2.167l3.143 13.298h-9.154l3.052-13.298h2.959zm5.085 15.07l.093-.098s.092-.098.092-.197c0-.098.093-.098.093-.197v-.197-.098-.197l-1.665-7.19h1.387l3.237 4.53-5.826 9.062-2.034-.59 4.623-4.827zM28.85 15.663l-1.11-4.827h2.59l2.959 2.66-2.404 2.167h-2.035zm-1.294 10.54l-3.421 3.447-3.422-3.448h6.843zm7.397-13.89L32.363 9.85l6.103-4.038 1.572 3.841-5.086 2.66zm10.819 12.806l-4.623 3.644-8.6-11.918 2.034-1.773 11.189 10.047zM36.617 13.79l4.253-2.167 3.884 9.752-8.137-7.585zm-33.01 7.585l3.883-9.752 4.253 2.167-8.137 7.585zM55.866 26.152v15.346h6.599c2.674 0 6.029-.811 6.029-4.297 0-2.258-1.425-3.376-2.938-3.815 1.36-.46 2.324-1.556 2.324-3.354 0-2.63-2.04-3.88-5.306-3.88h-6.708zm9.34 10.698c0 1.666-1.316 1.973-2.785 1.973h-3.289v-3.946h3.464c1.316 0 2.61.35 2.61 1.973zm-.593-6.248c0 1.184-.899 1.754-2.148 1.754h-3.31v-3.508h3.134c1.447 0 2.324.548 2.324 1.754zM71.115 26.152v15.346h3.288V26.152h-3.288zM81.195 41.498v-6.27h2.477l4.188 6.27h3.639l-5.262-7.87 4.977-7.476h-3.661l-3.88 6.094h-2.478v-6.094h-3.288v15.346h3.288zM93.284 26.152v15.346h10.94v-2.894h-7.652v-3.42h6.862v-2.872h-6.862v-3.266h7.52v-2.894H93.284z" fill="#F1F1F1"/></svg><svg viewBox="0 0 38 36" id="play" xmlns="http://www.w3.org/2000/svg"><path d="M38 18L9.5 33.589V2.412L38 18z"/></svg><svg viewBox="0 0 136 136" id="product-text" xmlns="http://www.w3.org/2000/svg"><path d="M74.274 1.149l-.312 6.727-.872-.062.312-5.98-3.115-.124-.311 5.98-.872-.063L69.478.9l4.796.249zM76.142 5.82c-.124 1.184.56 1.745 1.433 1.87.623.062.996.062 1.37-.063l.063.623c-.312.124-.873.187-1.62.062-1.495-.187-2.18-1.308-1.993-2.74.187-1.433 1.183-2.43 2.616-2.243 1.557.25 1.806 1.62 1.682 2.554 0 .187-.063.311-.063.374l-3.488-.436zm2.616-.249c.063-.56 0-1.432-.996-1.557-.872-.124-1.37.623-1.557 1.246l2.553.311zM80.876 5.572c.125-.623.25-1.122.311-1.558l.748.187-.125.81c.499-.498 1.122-.685 1.869-.498 1.121.249 1.744 1.432 1.433 2.865-.374 1.682-1.62 2.304-2.741 2.055-.623-.124-1.121-.56-1.308-1.059l-.56 2.554-.873-.187 1.246-5.17zm.56 1.432c0 .125-.062.25-.062.374 0 .623.436 1.183 1.06 1.308.934.187 1.619-.436 1.868-1.495.187-.934-.062-1.869-.997-2.055-.56-.125-1.245.186-1.557.747-.062.125-.124.25-.124.311l-.187.81zM86.67 8.063c-.375 1.121.248 1.806 1.058 2.118.623.187.997.187 1.37.187l-.062.623c-.311.062-.872 0-1.62-.187-1.432-.436-1.93-1.682-1.494-3.052.436-1.37 1.62-2.243 2.927-1.807 1.495.499 1.495 1.931 1.184 2.803-.063.187-.125.312-.125.374l-3.239-1.059zm2.615.187c.187-.498.25-1.433-.747-1.744-.872-.25-1.495.374-1.744.934l2.491.81zM92.71 7.44l-.809 1.869c-.311.685-.498 1.12-.81 1.744.499-.437.81-.686 1.308-1.06l2.367-1.743.934.373-1.868 4.423-.747-.312.81-1.868c.31-.748.498-1.121.809-1.807-.498.436-.872.748-1.308 1.06-.685.498-1.557 1.183-2.367 1.743l-.934-.373 1.868-4.423.748.374zm1.309-1.62c-.125.436-.063.81.311.935.374.187.685-.063.934-.436l.561.249c-.374.747-.996.934-1.682.623-.81-.312-.934-.997-.685-1.62l.56.25zM100.123 10.928l-.312.623-1.308-.685-1.868 3.675-.748-.374 1.869-3.675-1.308-.685.311-.623 3.364 1.744zM101.681 11.8l-1.059 1.744c-.374.685-.685 1.059-1.059 1.62.561-.374.872-.561 1.433-.873l2.616-1.308.872.561-2.492 4.111-.685-.436 1.059-1.744c.436-.685.623-.997 1.059-1.682-.561.374-.997.56-1.433.872-.809.374-1.744.935-2.616 1.37l-.872-.498 2.492-4.11.685.373zM108.345 16.347l-1.308 1.62.187.124 2.74-.498.81.685-2.99.436c.561.56.623 1.246.374 2.18-.125.311-.249.81-.311 1.246l-.748-.561c0-.25.125-.623.249-1.059.249-.81.063-1.37-.56-1.869l-.125-.124-1.308 1.682-.685-.56 2.99-3.8.685.498zM115.57 22.7l-.498.499-1.059-1.06-2.865 2.99-.623-.622 2.865-2.99-1.059-1.059.499-.498 2.74 2.74zM117.314 28.182c-1.308 1.183-2.741.81-3.488-.062-.872-.997-.81-2.367.311-3.364 1.184-1.059 2.616-.934 3.488.062.872.997.748 2.367-.311 3.364zm-2.616-2.803c-.81.685-.997 1.682-.436 2.305.56.622 1.557.56 2.367-.125.623-.56 1.121-1.557.436-2.305-.685-.81-1.682-.498-2.367.125zM119.868 27.683c.249.25.685.686.996 1.184.499.623 1.184 1.806.312 2.429-.499.374-1.059.187-1.495-.125.373.623.311 1.308-.249 1.682-.997.748-2.118-.436-2.679-1.183-.311-.436-.623-.872-.747-1.122l3.862-2.865zm-2.866 3.177l.374.56c.374.499.997 1.06 1.557.686.561-.436.249-1.06-.249-1.744l-.374-.499-1.308.997zm1.807-1.308l.373.498c.374.498.935.935 1.371.623.374-.311.311-.747-.187-1.432-.187-.25-.312-.374-.436-.499l-1.121.81zM120.365 36.777l.499-.373c-.436 0-.997-.25-1.371-.873-.498-.81-.187-1.619.374-1.993.997-.623 2.056-.062 3.052 1.495l.062-.062c.312-.187.872-.685.374-1.495a2.67 2.67 0 00-.996-.872l.373-.498c.436.187.872.623 1.184 1.12.809 1.247.124 2.119-.685 2.617l-1.495.996c-.374.25-.686.437-.935.686l-.436-.748zm1.994-1.432c-.499-.81-1.246-1.62-1.994-1.121-.498.31-.498.747-.249 1.12.312.561.872.623 1.308.561a.468.468 0 00.249-.124l.686-.436zM124.29 36.964c.56-.311.996-.56 1.37-.747l.374.685-.686.436c.686.062 1.246.374 1.62 1.059.561 1.059.062 2.242-1.246 2.927-1.557.81-2.803.25-3.301-.747-.311-.56-.311-1.184 0-1.682l-2.305 1.246-.373-.748 4.547-2.429zm-.748 1.37c-.124.063-.187.125-.311.187a1.433 1.433 0 00-.312 1.62c.436.81 1.371.934 2.305.436.872-.436 1.37-1.308.934-2.118-.249-.56-.934-.81-1.557-.685-.125 0-.249.062-.374.124l-.685.436zM128.401 41.698l-2.242 2.055a7.89 7.89 0 01-.81.685c.312 0 .685-.062 1.059-.124l2.99-.25.374.873-3.613.186c-1.744.063-2.741 0-3.426-.373-.498-.25-.81-.56-.934-.748l.623-.498c.124.187.373.374.685.56.249.125.685.312 1.183.312h.249c.063 0 .125-.062.187-.125l3.426-3.363.249.81zM135.751 74.274l-6.727-.311.062-.872 5.98.311.124-3.114-5.979-.312.062-.872 6.727.312-.249 4.858zM131.08 76.08c-1.184-.124-1.744.56-1.869 1.433-.062.623-.062.996.063 1.37l-.623.063c-.125-.312-.187-.873-.063-1.62.187-1.495 1.308-2.18 2.741-1.993 1.433.187 2.429 1.183 2.242 2.616-.249 1.557-1.619 1.806-2.553 1.682-.187 0-.312-.063-.374-.063l.436-3.488zm.249 2.616c.561.063 1.433 0 1.557-.996.125-.872-.623-1.37-1.246-1.557l-.311 2.553zM131.329 80.814c.623.125 1.121.25 1.557.312l-.187.747-.81-.125c.499.499.686 1.122.499 1.869-.249 1.121-1.433 1.744-2.865 1.433-1.682-.374-2.305-1.62-2.056-2.741.125-.623.561-1.121 1.059-1.308l-2.554-.56.187-.873 5.17 1.246zm-1.433.56c-.124 0-.249-.062-.373-.062-.623 0-1.184.436-1.309 1.06-.186.934.437 1.619 1.495 1.868.935.187 1.869-.125 2.056-.997.124-.56-.187-1.245-.748-1.557-.124-.062-.249-.125-.311-.125l-.81-.186zM128.9 86.607c-1.121-.374-1.806.249-2.118 1.058-.187.623-.187.997-.187 1.37l-.622-.061c-.063-.312 0-.873.186-1.62.436-1.433 1.682-1.93 3.052-1.495 1.371.436 2.243 1.62 1.807 2.928-.499 1.494-1.931 1.494-2.803 1.183-.187-.062-.312-.124-.374-.124l1.059-3.24zm-.249 2.678c.498.187 1.432.25 1.744-.748.249-.872-.374-1.494-.934-1.744l-.81 2.492zM129.461 92.71l-1.869-.809c-.685-.311-1.121-.498-1.744-.81.436.499.685.81 1.059 1.308l1.744 2.367-.374.934-4.422-1.868.311-.747 1.869.81c.747.31 1.121.498 1.806.809a16.472 16.472 0 01-1.059-1.308c-.498-.685-1.183-1.557-1.744-2.367l.374-.934 4.423 1.868-.374.748zm1.619 1.247c-.436-.125-.809-.063-.934.31-.187.375.062.686.436.935l-.249.56c-.748-.373-.934-.996-.623-1.68.311-.81.997-.935 1.619-.686l-.249.56zM125.972 100.06l-.623-.311.685-1.308-3.675-1.869.374-.747 3.675 1.869.685-1.309.623.312-1.744 3.363zM125.1 101.68l-1.744-1.059c-.685-.374-1.059-.685-1.619-1.059.373.561.56.872.872 1.433l1.308 2.616-.561.872-4.111-2.492.436-.685 1.744 1.059c.685.436.997.623 1.682 1.059-.374-.56-.561-.997-.872-1.433-.374-.809-.934-1.744-1.37-2.616l.498-.872 4.111 2.492-.374.685zM120.553 108.345l-1.62-1.308-.124.187.498 2.741-.685.81-.436-2.99c-.561.56-1.246.623-2.18.373a6.073 6.073 0 00-1.246-.311l.561-.747c.249 0 .623.124 1.059.249.809.249 1.37.062 1.868-.561l.125-.124-1.682-1.308.561-.686 3.799 2.99-.498.685zM114.2 115.508l-.499-.499 1.059-1.059-2.989-2.865.622-.623 2.99 2.866 1.059-1.059.498.498-2.74 2.741zM108.718 117.252c-1.183-1.308-.809-2.741.063-3.488.996-.872 2.367-.81 3.363.311 1.059 1.184.934 2.616-.062 3.488-.997.935-2.367.81-3.364-.311zm2.866-2.554c-.686-.81-1.682-.996-2.305-.436-.623.561-.561 1.557.125 2.367.56.623 1.557 1.121 2.304.436.748-.685.498-1.682-.124-2.367zM109.217 119.806c-.249.249-.685.685-1.183.996-.623.499-1.807 1.184-2.43.312-.373-.499-.186-1.059.125-1.495-.623.373-1.308.311-1.682-.249-.747-.997.436-2.118 1.184-2.679.436-.311.872-.623 1.121-.747l2.865 3.862zm-3.177-2.803l-.56.373c-.498.374-1.059.997-.685 1.558.436.56 1.059.249 1.744-.25l.498-.373-.997-1.308zm1.309 1.744l-.499.373c-.498.374-.934.935-.623 1.371.312.374.748.311 1.433-.187.249-.187.374-.312.498-.436l-.809-1.121zM100.185 120.366l.374.499c0-.436.249-.997.872-1.371.81-.498 1.62-.187 1.993.374.623.997.063 2.055-1.495 3.052l.063.062c.187.312.685.872 1.495.374.373-.249.685-.623.872-.997l.498.374c-.187.436-.623.872-1.121 1.184-1.246.809-2.118.124-2.616-.685l-.997-1.495c-.249-.374-.436-.686-.685-.935l.747-.436zm1.433 1.993c.81-.498 1.619-1.245 1.121-1.993-.311-.498-.747-.498-1.121-.249-.561.312-.623.872-.561 1.308 0 .062.063.187.125.249l.436.685zM99.999 124.228c.311.56.56.996.747 1.37l-.685.374-.436-.685c-.062.685-.374 1.245-1.059 1.619-1.059.561-2.242.062-2.928-1.246-.81-1.557-.249-2.802.748-3.301.56-.311 1.183-.311 1.682 0l-1.246-2.304.747-.374 2.43 4.547zm-1.37-.685c-.063-.125-.125-.187-.188-.312a1.432 1.432 0 00-1.619-.311c-.81.436-.934 1.37-.436 2.304.436.872 1.308 1.371 2.118.935.56-.249.81-.935.685-1.557 0-.125-.062-.25-.125-.374l-.436-.685zM95.202 128.401l-2.055-2.242a7.89 7.89 0 01-.685-.81c0 .312.062.685.124 1.059l.25 2.99-.873.374-.124-3.675c-.062-1.744 0-2.741.374-3.426.249-.498.56-.81.747-.934l.498.622c-.186.125-.373.374-.56.686-.125.249-.312.685-.312 1.183v.249c0 .062.063.125.125.187l3.363 3.426-.872.311zM62.627 135.751l.31-6.727.873.063-.312 5.979 3.115.125.311-5.98.872.063-.311 6.727-4.858-.25zM60.82 131.018c.125-1.184-.56-1.744-1.432-1.869-.623-.062-.997-.062-1.37.062l-.063-.623c.312-.124.872-.186 1.62-.062 1.494.187 2.18 1.308 1.993 2.741-.187 1.432-1.184 2.429-2.616 2.242-1.557-.249-1.807-1.682-1.682-2.554 0-.187.062-.311.062-.373l3.488.436zm-2.616.311c-.062.561 0 1.433.997 1.557.872.125 1.37-.623 1.557-1.246l-2.554-.311zM56.086 131.329c-.125.623-.25 1.121-.311 1.557l-.748-.187.125-.81c-.499.499-1.121.686-1.869.499-1.121-.249-1.744-1.433-1.433-2.865.374-1.682 1.62-2.305 2.741-2.056.623.125 1.121.561 1.308 1.059l.56-2.554.873.187-1.246 5.17zm-.56-1.433c0-.124.062-.249.062-.373 0-.623-.436-1.184-1.06-1.309-.934-.186-1.619.437-1.868 1.495-.187.935.063 1.869.997 2.056.56.124 1.246-.187 1.557-.748.062-.124.125-.249.125-.311l.186-.81zM50.293 128.837c.374-1.121-.249-1.806-1.059-2.117-.623-.187-.996-.187-1.37-.187l.062-.623c.312-.062.872 0 1.62.187 1.432.436 1.93 1.681 1.495 3.052-.436 1.37-1.62 2.242-2.928 1.806-1.495-.498-1.495-1.931-1.183-2.803.062-.187.124-.311.124-.374l3.24 1.059zm-2.616-.187c-.187.499-.249 1.433.748 1.744.872.25 1.495-.373 1.744-.934l-2.492-.81zM42.944 131.017c.124-.436.062-.809-.312-.934-.374-.187-.685.062-.934.436l-.56-.249c.373-.747.996-.934 1.681-.623.81.312.934.997.685 1.62l-.56-.25zm1.307-1.557l.81-1.868c.312-.685.499-1.121.81-1.744-.498.436-.81.685-1.308 1.059l-2.367 1.744-.934-.374 1.868-4.423.748.312-.81 1.869c-.311.747-.498 1.121-.81 1.806.499-.436.872-.748 1.308-1.059.685-.498 1.558-1.183 2.367-1.744l.935.374-1.869 4.422-.748-.374zM36.84 125.972l.312-.623 1.308.685 1.868-3.675.748.374-1.869 3.675 1.308.685-.311.623-3.364-1.744zM35.282 125.038l1.06-1.744c.373-.623.684-1.059 1.058-1.62-.56.374-.872.561-1.432.872l-2.617 1.308-.871-.56 2.491-4.111.685.436-1.059 1.744c-.436.685-.623.996-1.059 1.682.56-.374.997-.561 1.433-.872.81-.374 1.744-.935 2.616-1.371l.872.499-2.491 4.111-.686-.374zM28.555 120.554l1.308-1.62-.187-.124-2.74.498-.81-.685 2.99-.436c-.561-.561-.624-1.246-.375-2.18.125-.312.25-.81.312-1.246l.747.561c0 .249-.124.622-.249 1.058-.249.81-.062 1.371.56 1.869l.125.125 1.308-1.682.686.56-2.99 3.8-.685-.498zM21.392 114.2l.498-.499 1.06 1.059 2.864-2.989.623.622-2.865 2.99 1.059 1.059-.498.498-2.74-2.74zM19.648 108.719c1.308-1.184 2.74-.81 3.488.062.872.997.81 2.367-.311 3.363-1.184 1.059-2.616.935-3.488-.062-.935-.996-.81-2.367.311-3.363zm2.554 2.803c.81-.686.996-1.682.436-2.305-.56-.623-1.557-.561-2.367.125-.623.56-1.121 1.557-.436 2.304.685.81 1.682.498 2.367-.124zM17.095 109.217c-.25-.249-.685-.685-.997-1.184-.498-.622-1.183-1.806-.311-2.429.498-.373 1.059-.187 1.495.125-.374-.623-.312-1.308.249-1.682.996-.747 2.118.436 2.678 1.184.312.436.623.872.748 1.121l-3.862 2.865zm1.059-1.869l-.374-.498c-.374-.498-.934-.934-1.37-.623-.374.312-.312.748.186 1.433.187.249.312.373.436.498l1.122-.81zm1.806-1.308l-.374-.56c-.373-.499-.996-1.059-1.557-.685-.56.436-.249 1.058.25 1.744l.373.498 1.308-.997zM16.596 100.123l-.498.374c.436 0 .997.249 1.37.872.499.81.187 1.619-.373 1.993-.997.623-2.056.062-3.052-1.495l-.063.062c-.311.187-.872.686-.373 1.495.249.374.623.686.996.872l-.373.499c-.436-.187-.872-.623-1.184-1.121-.81-1.246-.124-2.118.685-2.617l1.495-.996c.374-.25.685-.436.934-.685l.436.747zm-2.055 1.433c.498.809 1.246 1.619 1.993 1.121.498-.312.498-.748.25-1.121-.312-.561-.873-.623-1.309-.561a.468.468 0 00-.249.125l-.685.436zM12.672 99.936c-.56.312-.997.561-1.37.748l-.374-.686.685-.436c-.685-.062-1.246-.373-1.62-1.058-.56-1.06-.062-2.243 1.246-2.928 1.557-.81 2.803-.25 3.301.748.312.56.312 1.183 0 1.681l2.305-1.245.374.747-4.547 2.43zm.747-1.37c.125-.063.187-.125.312-.187.436-.436.56-1.059.311-1.62-.436-.81-1.37-.934-2.304-.436-.872.437-1.37 1.309-.935 2.118.25.56.935.81 1.557.685.125 0 .25-.062.374-.124l.685-.436zM8.499 95.14l2.242-2.055c.25-.25.56-.499.81-.685-.312 0-.685.062-1.06.124l-2.989.25-.374-.873 3.675-.124c1.744-.063 2.741 0 3.426.373.498.25.81.561.934.748l-.623.498c-.124-.187-.373-.374-.685-.56-.249-.125-.685-.312-1.183-.312h-.25c-.062 0-.124.062-.186.125L8.81 96.012 8.5 95.14zM1.149 62.626l6.727.311-.062.872-5.98-.311-.124 3.114 5.98.312-.063.872L.9 67.484l.249-4.858zM5.883 60.82c1.183.124 1.744-.56 1.868-1.433.063-.623.063-.996-.062-1.37l.623-.062c.124.311.187.872.062 1.62-.187 1.494-1.308 2.18-2.74 1.992-1.433-.187-2.43-1.183-2.243-2.616.25-1.557 1.62-1.806 2.554-1.681.187 0 .311.062.374.062l-.436 3.488zm-.25-2.678c-.56-.063-1.432 0-1.557.996-.124.872.623 1.37 1.246 1.557l.311-2.553zM5.572 56.086c-.623-.124-1.121-.249-1.557-.311l.187-.748.81.125c-.499-.498-.686-1.121-.499-1.869.25-1.12 1.433-1.744 2.865-1.432 1.682.373 2.305 1.62 2.056 2.74-.125.623-.561 1.121-1.06 1.308l2.554.561-.186.872-5.17-1.246zm1.432-.56c.125 0 .25.062.374.062.623 0 1.184-.436 1.308-1.059.187-.934-.436-1.62-1.495-1.869-.934-.186-1.868.063-2.055.997-.125.56.187 1.246.747 1.557.125.063.25.125.312.125l.81.187zM8.063 50.293c1.121.374 1.807-.249 2.118-1.059.187-.623.187-.996.187-1.37l.623.062c.062.312 0 .872-.187 1.62-.436 1.432-1.682 1.93-3.052 1.495-1.37-.436-2.242-1.62-1.806-2.928.498-1.495 1.93-1.495 2.803-1.183.186.062.31.124.373.124l-1.059 3.24zm.187-2.678c-.498-.187-1.432-.25-1.744.747-.249.872.374 1.495.934 1.744l.81-2.491zM5.883 42.944c.436.124.81.062.935-.312.187-.373-.063-.685-.436-.934l.249-.56c.747.373.934.996.623 1.681-.312.81-.997.934-1.62.685l.25-.56zm1.558 1.245l1.868.81c.685.312 1.121.498 1.744.81-.436-.498-.685-.81-1.059-1.308L8.25 42.134l.374-.934 4.422 1.868-.311.748-1.869-.81c-.747-.311-1.12-.498-1.806-.81.436.499.747.872 1.059 1.308.498.686 1.183 1.558 1.744 2.367l-.374.934-4.422-1.868.374-.747zM10.928 36.777l.623.312-.685 1.308 3.675 1.868-.374.748-3.675-1.869-.685 1.308-.623-.311 1.744-3.364zM11.863 35.22l1.744 1.059c.685.373 1.059.685 1.62 1.058-.374-.56-.561-.872-.873-1.432l-1.308-2.616.561-.872 4.11 2.491-.435.685-1.744-1.059c-.685-.435-.997-.622-1.682-1.058.374.56.56.996.872 1.432.374.81.934 1.744 1.37 2.616l-.498.872-4.11-2.491.373-.685zM16.347 28.555l1.62 1.308.124-.186-.498-2.741.685-.81.436 2.99c.56-.56 1.246-.623 2.18-.374.312.125.81.25 1.246.312l-.56.747c-.25 0-.623-.124-1.06-.249-.81-.25-1.37-.062-1.868.56l-.125.125 1.682 1.308-.56.685-3.8-2.99.498-.685zM22.763 21.33l.498.499-1.058 1.058 2.99 2.866-.624.623-2.99-2.866-1.058 1.06-.498-.5 2.74-2.74zM28.181 19.648c1.184 1.308.81 2.74-.062 3.488-.997.872-2.367.81-3.364-.311-1.058-1.183-.934-2.616.063-3.488 1.059-.934 2.429-.81 3.363.311zm-2.803 2.554c.685.81 1.682.997 2.305.436.623-.56.56-1.557-.125-2.367-.56-.623-1.557-1.121-2.304-.436-.81.685-.499 1.682.124 2.367zM27.746 17.032c.249-.25.685-.685 1.183-.997.623-.498 1.806-1.183 2.43-.311.373.498.186 1.059-.125 1.495.622-.374 1.308-.312 1.681.249.748.996-.436 2.118-1.183 2.678-.436.312-.872.623-1.121.748l-2.865-3.862zm1.806 1.121l.498-.374c.498-.373.934-.934.623-1.37-.311-.374-.747-.311-1.432.187-.25.187-.374.311-.499.436l.81 1.121zm1.37 1.744l.56-.374c.5-.373 1.06-.996.686-1.557-.436-.56-1.059-.249-1.744.25l-.498.373.996 1.308zM36.778 16.534l-.374-.498c0 .436-.25.996-.872 1.37-.81.498-1.62.187-1.993-.374-.623-.996-.063-2.055 1.494-3.052l-.062-.062c-.187-.311-.685-.872-1.495-.374-.373.25-.685.623-.872.997l-.498-.374c.187-.436.623-.872 1.121-1.183 1.246-.81 2.118-.125 2.616.685l.997 1.495c.249.373.436.685.685.934l-.747.436zm-1.433-1.993c-.81.498-1.62 1.246-1.121 1.993.311.498.747.498 1.12.25.562-.312.624-.873.562-1.309a.472.472 0 00-.125-.249l-.436-.685zM36.965 12.61c-.312-.56-.56-.997-.748-1.37l.685-.374.436.685c.063-.685.374-1.246 1.06-1.62 1.058-.56 2.242-.062 2.927 1.246.81 1.557.249 2.803-.748 3.302-.56.31-1.183.31-1.681 0l1.245 2.304-.747.374-2.43-4.547zm1.37.747c.062.125.125.187.187.312.436.436 1.059.56 1.62.311.81-.436.934-1.37.435-2.304-.436-.872-1.308-1.37-2.117-.935-.561.25-.81.935-.685 1.557 0 .125.062.25.124.374l.436.685zM41.76 8.499l2.056 2.242c.249.25.498.56.685.81 0-.311-.063-.685-.125-1.059l-.249-2.99L45 7.13l.125 3.675c.062 1.744 0 2.74-.374 3.425-.25.499-.56.81-.748.935l-.498-.623c.187-.125.374-.374.56-.685.125-.25.312-.685.312-1.184v-.249c0-.062-.062-.124-.124-.187L40.888 8.81l.872-.311z"/></svg><svg viewBox="0 0 136 136" id="video-text" xmlns="http://www.w3.org/2000/svg"><path d="M72.942 6.678c-.312.125-.997.25-1.808.25-1.87-.063-3.241-1.372-3.179-3.554.125-2.12 1.559-3.49 3.678-3.366.81.062 1.371.25 1.559.374l-.25.686c-.312-.187-.81-.312-1.371-.312-1.559-.062-2.68.873-2.743 2.68-.063 1.621.81 2.743 2.431 2.806.499 0 1.06-.063 1.434-.187l.25.623zM74.563 2.19l1.06.125.498 2.555c.063.374.187.998.25 1.372.187-.312.56-1.06.81-1.559l1.06-1.994 1.06.124-.375 4.8-.81-.124.25-2.307c.062-.499.062-1.122.186-1.745-.187.436-.374.81-.748 1.496l-1.246 2.306-.624-.062-.498-2.494c-.063-.498-.188-1.184-.25-1.683h-.062c-.125.561-.25 1.185-.312 1.683l-.436 2.245-.81-.125.997-4.613zM84.786 6.553c-.437 1.746-1.808 2.182-2.93 1.933-1.247-.312-1.995-1.496-1.683-2.93.374-1.559 1.62-2.244 2.93-1.933 1.371.312 2.057 1.496 1.683 2.93zm-3.74-.81c-.25.997.124 1.932.997 2.12.81.186 1.62-.437 1.87-1.497.187-.81.062-1.87-.998-2.12-.934-.249-1.62.562-1.87 1.497zM89.711 5.68l-.187.686-1.434-.436-1.246 3.927-.81-.25L87.28 5.68l-1.434-.436.187-.686 3.678 1.122zM90.023 7.488c.25-.56.436-1.06.56-1.496l.749.312-.25.81c.562-.436 1.185-.498 1.933-.187 1.06.437 1.496 1.683.935 3.055-.686 1.62-1.995 1.995-2.992 1.558-.561-.25-.998-.685-1.06-1.247l-.997 2.432-.81-.312 1.932-4.925zm.312 1.496c-.063.125-.063.25-.125.374-.063.624.25 1.185.81 1.434.873.374 1.62-.124 2.057-1.184.374-.873.187-1.87-.623-2.182-.561-.25-1.247-.062-1.62.499-.063.062-.126.187-.188.311l-.311.748zM95.383 10.855c-.498 1.06-.062 1.87.686 2.244.56.311.935.374 1.309.374l-.125.623c-.311 0-.872-.124-1.558-.499-1.31-.685-1.683-1.932-.997-3.241.685-1.31 1.932-1.933 3.179-1.247 1.371.748 1.122 2.12.748 2.93-.063.187-.187.25-.187.374l-3.055-1.558zm2.556.623c.25-.499.436-1.371-.436-1.808-.81-.436-1.496.125-1.87.624l2.306 1.184zM103.487 12.537l-.374.624-1.309-.81-2.181 3.49-.749-.436 2.182-3.491-1.309-.81.374-.624 3.366 2.057zM104.983 13.535l-.935 1.31c.187.061.436.248.686.435.872.624 1.62 1.559.872 2.619-.311.436-.685.56-1.059.623-.686.062-1.434-.374-2.057-.748-.374-.312-.748-.561-.998-.81l2.805-3.928.686.5zm-2.431 3.429c.125.124.249.249.499.436.561.374 1.371.686 1.807.062.499-.685-.124-1.309-.623-1.745-.187-.125-.374-.25-.561-.312l-1.122 1.559zM110.158 17.587c.311.187.81.56 1.184.935.623.561 1.496 1.558.81 2.306-.374.437-.997.437-1.496.125.437.561.561 1.184.125 1.683-.873.935-2.12 0-2.868-.623-.374-.374-.81-.748-.997-.935l3.242-3.491zm-2.182 3.678l.498.498c.437.374 1.185.873 1.621.374.499-.498.063-1.122-.561-1.683l-.499-.436-1.059 1.247zm1.496-1.621l.499.436c.498.437 1.122.748 1.496.312.311-.374.187-.81-.499-1.371-.187-.187-.374-.312-.561-.437l-.935 1.06zM114.646 21.7l-1.496 1.372c-.561.499-.935.873-1.434 1.31.623-.188.997-.312 1.621-.437l2.867-.623.686.748-3.491 3.304-.561-.624 1.496-1.371c.561-.561.873-.81 1.496-1.31-.685.188-1.06.312-1.621.437-.872.187-1.87.436-2.867.623l-.686-.748 3.429-3.241.561.56zM120.318 28.371l-3.241 2.556.311.374-1.745 1.309-.436-.561 1.184-.997-2.057-2.619-1.247.936-.436-.562 1.683-1.371.249.312c.374 0 .748-.125 1.06-.25a7.954 7.954 0 001.683-.997l.998-.748 1.994 2.618zm-2.68-1.06c-.499.374-1.06.686-1.559.935-.311.125-.623.187-.935.25l1.372 1.745 2.743-2.182-.998-1.246-.623.498zM119.446 31.613c-.998.685-.998 1.558-.499 2.306.374.499.623.748.935.997l-.436.5c-.312-.188-.686-.562-1.122-1.185-.811-1.247-.499-2.494.685-3.304 1.185-.81 2.618-.748 3.429.436.872 1.31-.063 2.431-.811 2.93-.124.125-.249.187-.374.187l-1.807-2.867zm1.994 1.807c.499-.311 1.06-.997.499-1.807-.499-.748-1.371-.624-1.932-.312l1.433 2.12zM124.245 39.156c-1.558.872-2.867.124-3.428-.873-.624-1.122-.25-2.494 1.059-3.242 1.434-.748 2.743-.311 3.429.873.623 1.247.249 2.556-1.06 3.242zm-1.932-3.304c-.935.498-1.309 1.433-.935 2.181.374.748 1.371.935 2.368.374.686-.373 1.434-1.246.935-2.181-.498-.935-1.558-.81-2.368-.374zM128.485 72.942c-.125-.312-.25-.997-.25-1.808.063-1.87 1.372-3.241 3.554-3.179 2.119.125 3.49 1.559 3.366 3.678-.063.81-.25 1.371-.374 1.559l-.686-.25c.187-.312.312-.81.312-1.371.062-1.559-.873-2.68-2.681-2.743-1.621-.063-2.743.81-2.805 2.431 0 .499.062 1.06.187 1.434l-.623.25zM132.911 74.563l-.125 1.06-2.556.498c-.374.063-.997.187-1.371.25.311.187 1.059.56 1.558.81l1.995 1.06-.125 1.06-4.8-.375.125-.81 2.306.25c.499.062 1.123.062 1.746.186-.436-.187-.81-.374-1.496-.748l-2.307-1.246.063-.624 2.493-.498c.499-.063 1.185-.188 1.683-.25v-.062a19.495 19.495 0 00-1.683-.312l-2.244-.436.125-.81 4.613.997zM128.547 84.786c-1.746-.436-2.182-1.807-1.933-2.93.312-1.246 1.497-1.994 2.93-1.683 1.559.374 2.244 1.621 1.933 2.93-.312 1.372-1.496 1.995-2.93 1.683zm.873-3.74c-.998-.25-1.933.125-2.12.997-.187.81.437 1.621 1.496 1.87.811.188 1.87.063 2.12-.997.187-.997-.624-1.683-1.496-1.87zM129.482 89.649l-.685-.187.436-1.434-3.927-1.247.249-.81 3.927 1.246.437-1.433.685.187-1.122 3.678zM127.674 90.022c.561.25 1.06.437 1.496.561l-.311.748-.811-.249c.437.561.499 1.184.187 1.933-.436 1.06-1.683 1.496-3.054.934-1.621-.685-1.995-1.994-1.559-2.992.25-.56.686-.997 1.247-1.06l-2.431-.997.312-.81 4.924 1.932zm-1.558.312c-.125-.062-.249-.062-.374-.125-.624-.062-1.185.25-1.434.81-.374.873.125 1.621 1.185 2.058.872.374 1.87.187 2.181-.624.25-.56.063-1.246-.498-1.62-.063-.063-.187-.125-.312-.187l-.748-.312zM124.246 95.32c-1.06-.498-1.87-.061-2.244.687-.312.56-.374.935-.374 1.309l-.624-.125c0-.312.125-.873.499-1.558.686-1.31 1.933-1.683 3.242-.998 1.309.686 1.932 1.933 1.246 3.18-.748 1.37-2.119 1.121-2.929.747-.188-.062-.25-.187-.375-.187l1.559-3.054zm-.623 2.557c.498.25 1.371.436 1.807-.437.437-.81-.124-1.496-.623-1.87l-1.184 2.307zM122.625 103.425l-.624-.374.811-1.309-3.491-2.182.436-.748 3.491 2.182.81-1.31.624.375-2.057 3.366zM121.565 104.921l-1.309-.935c-.062.187-.249.436-.436.686-.624.872-1.559 1.62-2.618.872-.437-.311-.561-.685-.624-1.059-.062-.686.374-1.434.748-2.057.312-.374.561-.748.811-.998l3.927 2.805-.499.686zm-3.428-2.431c-.125.125-.25.249-.437.499-.374.561-.685 1.371-.062 1.807.686.499 1.309-.124 1.745-.623.125-.187.25-.374.312-.561l-1.558-1.122zM117.513 110.157a6.98 6.98 0 01-.935 1.185c-.561.623-1.558 1.496-2.306.81-.437-.374-.437-.997-.125-1.496-.561.436-1.184.561-1.683.125-.935-.873 0-2.12.623-2.868.374-.374.748-.81.935-.997l3.491 3.241zm-3.678-2.244l-.498.499c-.374.436-.873 1.184-.374 1.621.498.498 1.122.062 1.683-.561l.436-.499-1.247-1.06zm1.683 1.496l-.436.499c-.436.499-.748 1.122-.312 1.496.374.312.811.187 1.372-.499.187-.187.312-.374.436-.561l-1.06-.935zM113.399 114.583l-1.371-1.496c-.499-.561-.873-.935-1.309-1.434.187.624.311.998.436 1.621l.623 2.868-.748.685-3.303-3.49.623-.561 1.371 1.496c.561.561.811.872 1.309 1.496-.187-.686-.311-1.06-.436-1.621-.187-.873-.436-1.87-.623-2.868l.748-.685 3.304 3.491-.624.498zM106.792 120.256l-2.556-3.242-.374.312-1.309-1.745.561-.437.997 1.185 2.618-2.058-.935-1.246.561-.437 1.372 1.683-.312.25c0 .374.125.748.249 1.06.25.561.561 1.122.998 1.683l.748.997-2.618 1.995zm.997-2.618a10.289 10.289 0 01-.935-1.559c-.125-.311-.187-.623-.249-.935l-1.746 1.372 2.182 2.742 1.247-.997-.499-.623zM103.488 119.446c-.686-.998-1.559-.998-2.307-.499-.499.374-.748.623-.997.935l-.499-.436c.187-.312.561-.686 1.184-1.122 1.247-.811 2.494-.499 3.304.685.811 1.185.748 2.618-.436 3.429-1.309.873-2.431-.063-2.93-.811-.125-.124-.187-.249-.187-.374l2.868-1.807zm-1.808 1.932c.312.499.997 1.06 1.808.499.748-.499.623-1.372.311-1.933l-2.119 1.434zM95.945 124.183c-.873-1.558-.125-2.867.873-3.428 1.122-.624 2.493-.25 3.241 1.059.748 1.434.312 2.743-.873 3.429-1.246.686-2.556.249-3.241-1.06zm3.304-1.87c-.499-.935-1.434-1.309-2.182-.935-.748.374-.935 1.371-.374 2.369.374.685 1.247 1.434 2.182.935.872-.499.81-1.559.374-2.369z"/><path d="M128.485 72.942c-.125-.312-.25-.997-.25-1.808.063-1.87 1.372-3.241 3.554-3.179 2.119.125 3.49 1.559 3.366 3.678-.063.81-.25 1.371-.374 1.559l-.686-.25c.187-.312.312-.81.312-1.371.062-1.559-.873-2.68-2.681-2.743-1.621-.063-2.743.81-2.805 2.431 0 .499.062 1.06.187 1.434l-.623.25zM132.911 74.563l-.125 1.06-2.556.498c-.374.063-.997.187-1.371.25.311.187 1.059.56 1.558.81l1.995 1.06-.125 1.06-4.8-.375.125-.81 2.306.25c.499.062 1.123.062 1.746.186-.436-.187-.81-.374-1.496-.748l-2.307-1.246.063-.624 2.493-.498c.499-.063 1.185-.188 1.683-.25v-.062a19.495 19.495 0 00-1.683-.312l-2.244-.436.125-.81 4.613.997zM128.547 84.786c-1.746-.436-2.182-1.807-1.933-2.93.312-1.246 1.497-1.994 2.93-1.683 1.559.374 2.244 1.621 1.933 2.93-.312 1.372-1.496 1.995-2.93 1.683zm.873-3.74c-.998-.25-1.933.125-2.12.997-.187.81.437 1.621 1.496 1.87.811.188 1.87.063 2.12-.997.187-.997-.624-1.683-1.496-1.87zM129.482 89.649l-.685-.187.436-1.434-3.927-1.247.249-.81 3.927 1.246.437-1.433.685.187-1.122 3.678zM127.674 90.022c.561.25 1.06.437 1.496.561l-.311.748-.811-.249c.437.561.499 1.184.187 1.933-.436 1.06-1.683 1.496-3.054.934-1.621-.685-1.995-1.994-1.559-2.992.25-.56.686-.997 1.247-1.06l-2.431-.997.312-.81 4.924 1.932zm-1.558.312c-.125-.062-.249-.062-.374-.125-.624-.062-1.185.25-1.434.81-.374.873.125 1.621 1.185 2.058.872.374 1.87.187 2.181-.624.25-.56.063-1.246-.498-1.62-.063-.063-.187-.125-.312-.187l-.748-.312zM124.246 95.32c-1.06-.498-1.87-.061-2.244.687-.312.56-.374.935-.374 1.309l-.624-.125c0-.312.125-.873.499-1.558.686-1.31 1.933-1.683 3.242-.998 1.309.686 1.932 1.933 1.246 3.18-.748 1.37-2.119 1.121-2.929.747-.188-.062-.25-.187-.375-.187l1.559-3.054zm-.623 2.557c.498.25 1.371.436 1.807-.437.437-.81-.124-1.496-.623-1.87l-1.184 2.307zM122.625 103.425l-.624-.374.811-1.309-3.491-2.182.436-.748 3.491 2.182.81-1.31.624.375-2.057 3.366zM121.565 104.921l-1.309-.935c-.062.187-.249.436-.436.686-.624.872-1.559 1.62-2.618.872-.437-.311-.561-.685-.624-1.059-.062-.686.374-1.434.748-2.057.312-.374.561-.748.811-.998l3.927 2.805-.499.686zm-3.428-2.431c-.125.125-.25.249-.437.499-.374.561-.685 1.371-.062 1.807.686.499 1.309-.124 1.745-.623.125-.187.25-.374.312-.561l-1.558-1.122zM117.513 110.157a6.98 6.98 0 01-.935 1.185c-.561.623-1.558 1.496-2.306.81-.437-.374-.437-.997-.125-1.496-.561.436-1.184.561-1.683.125-.935-.873 0-2.12.623-2.868.374-.374.748-.81.935-.997l3.491 3.241zm-3.678-2.244l-.498.499c-.374.436-.873 1.184-.374 1.621.498.498 1.122.062 1.683-.561l.436-.499-1.247-1.06zm1.683 1.496l-.436.499c-.436.499-.748 1.122-.312 1.496.374.312.811.187 1.372-.499.187-.187.312-.374.436-.561l-1.06-.935zM113.399 114.583l-1.371-1.496c-.499-.561-.873-.935-1.309-1.434.187.624.311.998.436 1.621l.623 2.868-.748.685-3.303-3.49.623-.561 1.371 1.496c.561.561.811.872 1.309 1.496-.187-.686-.311-1.06-.436-1.621-.187-.873-.436-1.87-.623-2.868l.748-.685 3.304 3.491-.624.498zM106.792 120.256l-2.556-3.242-.374.312-1.309-1.745.561-.437.997 1.185 2.618-2.058-.935-1.246.561-.437 1.372 1.683-.312.25c0 .374.125.748.249 1.06.25.561.561 1.122.998 1.683l.748.997-2.618 1.995zm.997-2.618a10.289 10.289 0 01-.935-1.559c-.125-.311-.187-.623-.249-.935l-1.746 1.372 2.182 2.742 1.247-.997-.499-.623zM103.488 119.446c-.686-.998-1.559-.998-2.307-.499-.499.374-.748.623-.997.935l-.499-.436c.187-.312.561-.686 1.184-1.122 1.247-.811 2.494-.499 3.304.685.811 1.185.748 2.618-.436 3.429-1.309.873-2.431-.063-2.93-.811-.125-.124-.187-.249-.187-.374l2.868-1.807zm-1.808 1.932c.312.499.997 1.06 1.808.499.748-.499.623-1.372.311-1.933l-2.119 1.434zM95.945 124.183c-.873-1.558-.125-2.867.873-3.428 1.122-.624 2.493-.25 3.241 1.059.748 1.434.312 2.743-.873 3.429-1.246.686-2.556.249-3.241-1.06zm3.304-1.87c-.499-.935-1.434-1.309-2.182-.935-.748.374-.935 1.371-.374 2.369.374.685 1.247 1.434 2.182.935.872-.499.81-1.559.374-2.369zM62.22 128.422c.312-.124.997-.249 1.808-.249 1.87.062 3.241 1.371 3.179 3.553-.125 2.12-1.558 3.491-3.678 3.366-.81-.062-1.371-.249-1.558-.374l.25-.685c.31.187.81.311 1.37.311 1.559.063 2.681-.872 2.743-2.68.063-1.621-.81-2.743-2.43-2.805-.5 0-1.06.062-1.435.187l-.249-.624zM60.6 132.91l-1.06-.125-.499-2.555c-.062-.374-.187-.998-.25-1.372-.186.312-.56 1.06-.81 1.559l-1.06 1.994-1.06-.124.375-4.8.81.124-.25 2.307c-.062.499-.062 1.122-.186 1.745.187-.436.374-.81.748-1.496l1.247-2.306.623.062.499 2.494c.062.498.187 1.184.25 1.683h.061c.125-.561.25-1.185.312-1.683l.436-2.244.81.124-.997 4.613zM50.377 128.484c.436-1.745 1.807-2.181 2.93-1.932 1.246.312 1.994 1.496 1.682 2.93-.373 1.558-1.62 2.244-2.93 1.932-1.37-.249-2.056-1.496-1.682-2.93zm3.677.873c.25-.997-.124-1.932-.997-2.119-.81-.187-1.62.436-1.87 1.496-.187.81-.062 1.87.997 2.119.998.25 1.683-.623 1.87-1.496zM45.452 129.419l.187-.685 1.433.436 1.247-3.927.81.249-1.246 3.927 1.434.437-.188.686-3.677-1.123zM45.14 127.612c-.25.561-.437 1.059-.561 1.496l-.748-.312.249-.81c-.561.436-1.184.498-1.932.187-1.06-.437-1.497-1.684-.936-3.055.686-1.621 1.995-1.995 2.993-1.558.56.249.997.685 1.06 1.246l.997-2.431.81.312-1.932 4.925zm-.312-1.497c.062-.124.062-.249.125-.374.062-.623-.25-1.184-.81-1.433-.873-.374-1.621.124-2.058 1.184-.374.873-.187 1.87.624 2.182.56.249 1.246.062 1.62-.499.063-.062.125-.187.187-.311l.312-.749zM39.779 124.245c.498-1.059.062-1.87-.686-2.244-.561-.311-.935-.374-1.31-.374l.126-.623c.311 0 .872.125 1.558.499 1.31.685 1.683 1.932.997 3.241-.685 1.309-1.932 1.933-3.179 1.247-1.371-.748-1.122-2.12-.748-2.93.063-.187.187-.249.187-.374l3.055 1.558zm-2.556-.623c-.25.499-.437 1.371.436 1.808.81.436 1.496-.125 1.87-.624l-2.306-1.184zM31.675 122.562l.374-.623 1.309.81 2.182-3.491.748.437-2.182 3.491 1.309.81-.374.623-3.366-2.057zM30.179 121.565l.935-1.309c-.187-.062-.437-.249-.686-.436-.873-.624-1.62-1.559-.873-2.619.312-.436.686-.561 1.06-.623.686-.062 1.434.374 2.057.748.374.312.748.561.998.81l-2.806 3.928-.685-.499zm2.43-3.491a4.035 4.035 0 00-.498-.436c-.56-.374-1.371-.686-1.808-.063-.498.686.125 1.309.624 1.746.187.125.374.249.56.312l1.123-1.559zM25.005 117.513a6.99 6.99 0 01-1.184-.935c-.624-.561-1.496-1.558-.81-2.306.373-.437.997-.437 1.495-.125-.436-.561-.56-1.184-.124-1.683.872-.935 2.12 0 2.867.623.374.374.81.748.998.935l-3.242 3.491zm.686-2.057l-.499-.436c-.499-.437-1.122-.748-1.496-.312-.312.374-.187.81.499 1.371.187.188.374.312.56.437l.936-1.06zm1.496-1.621l-.499-.498c-.436-.374-1.184-.873-1.62-.374-.5.498-.063 1.122.56 1.683l.5.436 1.059-1.247zM20.517 113.399l1.496-1.372c.56-.498.935-.872 1.433-1.309-.623.187-.997.312-1.62.437l-2.868.623-.685-.748 3.49-3.304.561.623-1.496 1.372c-.56.561-.872.81-1.496 1.309.686-.187 1.06-.312 1.621-.436.873-.187 1.87-.437 2.867-.624l.686.748-3.49 3.304-.5-.623zM14.844 106.729l3.242-2.556-.312-.374 1.745-1.309.437.561-1.184.997 2.057 2.619 1.246-.935.437.561-1.683 1.371-.25-.312c-.374 0-.748.125-1.06.25a7.948 7.948 0 00-1.683.997l-.997.748-1.995-2.618zm2.68.997c.5-.374 1.06-.685 1.56-.935.31-.124.622-.187.934-.249l-1.371-1.746-2.743 2.182.997 1.247.624-.499zM15.654 103.487c.997-.685.997-1.558.499-2.306-.374-.499-.624-.748-.935-.997l.436-.5c.312.188.686.562 1.122 1.185.81 1.247.499 2.494-.686 3.304-1.184.81-2.618.748-3.428-.436-.873-1.309.062-2.431.81-2.93.125-.125.25-.187.374-.187l1.808 2.867zm-1.932-1.807c-.5.311-1.06.997-.5 1.807.5.748 1.372.624 1.933.312l-1.433-2.119zM10.917 95.882c1.559-.872 2.868-.124 3.429.873.623 1.122.249 2.494-1.06 3.242-1.434.748-2.743.311-3.429-.873-.685-1.185-.249-2.494 1.06-3.242zm1.87 3.367c.935-.5 1.31-1.434.935-2.182-.374-.748-1.371-.935-2.368-.374-.686.374-1.434 1.246-.935 2.181.56.873 1.558.81 2.368.375zM6.678 62.158c.125.311.25.997.25 1.808-.063 1.87-1.372 3.241-3.554 3.179-2.12-.125-3.49-1.559-3.366-3.678.062-.81.25-1.371.374-1.559l.686.25c-.187.311-.312.81-.312 1.371-.062 1.559.873 2.68 2.68 2.743 1.621.062 2.743-.81 2.806-2.431 0-.499-.063-1.06-.187-1.434l.623-.25zM2.252 60.537l.125-1.06 2.555-.498c.374-.063.998-.188 1.372-.25-.374-.187-1.06-.56-1.559-.81l-1.994-1.06.124-1.06 4.8.374-.124.81-2.307-.249c-.499-.062-1.122-.062-1.745-.187.498.25.872.437 1.558.748l2.307 1.247-.063.623-2.493.5c-.499.124-1.247.249-1.683.31v.063c.56.125 1.184.25 1.683.312l2.244.436-.125.81-4.675-1.06zM6.615 50.314c1.746.436 2.182 1.808 1.933 2.93-.312 1.246-1.496 1.994-2.93 1.683-1.559-.374-2.244-1.621-1.933-2.93.312-1.371 1.496-2.057 2.93-1.683zm-.873 3.74c.998.25 1.933-.125 2.12-.997.187-.81-.436-1.621-1.496-1.87-.81-.188-1.87-.063-2.12.997-.187.997.624 1.62 1.496 1.87zM5.68 45.452l.686.187-.437 1.433 3.928 1.247-.312.873-3.927-1.247-.437 1.434-.685-.187 1.184-3.74zM7.488 45.078a11.61 11.61 0 00-1.496-.561l.312-.748.81.249c-.436-.561-.498-1.184-.187-1.932.437-1.06 1.683-1.496 3.055-.935 1.62.685 1.995 1.994 1.558 2.992-.25.56-.685.997-1.247 1.06l2.432.997-.312.81-4.925-1.932zm1.496-.312c.125.062.25.062.374.125.624.062 1.185-.25 1.434-.81.374-.873-.124-1.621-1.184-2.058-.873-.374-1.87-.187-2.182.624-.25.56-.062 1.246.499 1.62.062.063.187.125.311.187l.748.312zM10.917 39.779c1.06.499 1.87.062 2.245-.686.311-.56.373-.935.373-1.309l.624.125c0 .312-.125.873-.499 1.558-.685 1.31-1.932 1.683-3.241.998-1.31-.686-1.933-1.933-1.247-3.18.748-1.371 2.12-1.122 2.93-.748.187.063.25.187.374.187l-1.559 3.055zm.624-2.618c-.499-.25-1.372-.437-1.808.436-.436.81.125 1.496.623 1.87l1.185-2.306zM12.538 31.675l.623.374-.81 1.31 3.49 2.18-.436.749-3.49-2.182-.811 1.31-.623-.375 2.057-3.366zM13.597 30.116l1.31.936c.062-.188.249-.437.436-.686.623-.873 1.558-1.621 2.618-.873.436.312.561.686.623 1.06.063.685-.374 1.434-.748 2.057-.311.374-.56.748-.81.997l-3.927-2.742.498-.749zm3.429 2.494c.125-.125.25-.25.436-.499.374-.56.686-1.371.063-1.807-.686-.5-1.31.124-1.746.623-.125.187-.25.374-.312.56l1.559 1.123zM17.65 24.943c.186-.312.56-.81.934-1.185.561-.623 1.559-1.496 2.307-.81.436.374.436.997.125 1.496.56-.436 1.184-.561 1.683-.125.935.873 0 2.12-.624 2.868-.374.374-.748.81-.935.997l-3.49-3.241zm1.994.685l.437-.498c.436-.5.748-1.122.311-1.496-.374-.312-.81-.188-1.371.498a3.426 3.426 0 00-.437.561l1.06.935zm1.683 1.496l.499-.498c.374-.437.873-1.185.374-1.621-.499-.499-1.122-.062-1.683.561l-.436.499 1.246 1.06zM21.764 20.517l1.37 1.496c.5.561.874.935 1.31 1.434-.187-.624-.312-.998-.436-1.621l-.624-2.868.748-.685 3.304 3.49-.623.562-1.372-1.497c-.56-.56-.81-.872-1.309-1.496.187.686.312 1.06.437 1.621.187.873.436 1.87.623 2.868l-.748.685-3.304-3.49.623-.5zM28.371 14.844l2.556 3.242.374-.312 1.31 1.745-.562.437-.872-1.185-2.619 2.057.936 1.247-.562.436-1.371-1.683.312-.249c0-.374-.125-.748-.25-1.06a7.952 7.952 0 00-.997-1.683l-.748-.997 2.493-1.995zm-.997 2.618c.374.499.686 1.06.935 1.559.125.311.187.623.25.935l1.745-1.372-2.182-2.743-1.247.998.499.623zM31.675 15.654c.686.998 1.558.998 2.306.499.5-.374.749-.623.998-.935l.499.436c-.187.312-.561.686-1.185 1.122-1.246.81-2.493.5-3.304-.685-.81-1.185-.748-2.619.437-3.429 1.309-.873 2.43.063 2.93.81.124.125.187.25.187.375l-2.868 1.807zm1.808-1.932c-.312-.499-.997-1.06-1.808-.499-.748.499-.623 1.372-.312 1.933l2.12-1.434zM39.218 10.917c.873 1.558.125 2.867-.873 3.428-1.122.624-2.493.25-3.241-1.06-.748-1.433-.312-2.742.873-3.428 1.246-.686 2.555-.25 3.241 1.06zm-3.304 1.87c.499.935 1.434 1.31 2.182.935.748-.374.935-1.371.374-2.369-.374-.685-1.247-1.433-2.182-.935-.935.499-.872 1.559-.374 2.369z"/><path d="M6.678 62.158c.125.311.25.997.25 1.808-.063 1.87-1.372 3.241-3.554 3.179-2.12-.125-3.49-1.559-3.366-3.678.062-.81.25-1.371.374-1.559l.686.25c-.187.311-.312.81-.312 1.371-.062 1.559.873 2.68 2.68 2.743 1.621.062 2.743-.81 2.806-2.431 0-.499-.063-1.06-.187-1.434l.623-.25zM2.252 60.537l.125-1.06 2.555-.498c.374-.063.998-.188 1.372-.25-.374-.187-1.06-.56-1.559-.81l-1.994-1.06.124-1.06 4.8.374-.124.81-2.307-.249c-.499-.062-1.122-.062-1.745-.187.498.25.872.437 1.558.748l2.307 1.247-.063.623-2.493.5c-.499.124-1.247.249-1.683.31v.063c.56.125 1.184.25 1.683.312l2.244.436-.125.81-4.675-1.06zM6.615 50.314c1.746.436 2.182 1.808 1.933 2.93-.312 1.246-1.496 1.994-2.93 1.683-1.559-.374-2.244-1.621-1.933-2.93.312-1.371 1.496-2.057 2.93-1.683zm-.873 3.74c.998.25 1.933-.125 2.12-.997.187-.81-.436-1.621-1.496-1.87-.81-.188-1.87-.063-2.12.997-.187.997.624 1.62 1.496 1.87zM5.68 45.452l.686.187-.437 1.433 3.928 1.247-.312.873-3.927-1.247-.437 1.434-.685-.187 1.184-3.74zM7.488 45.078a11.61 11.61 0 00-1.496-.561l.312-.748.81.249c-.436-.561-.498-1.184-.187-1.932.437-1.06 1.683-1.496 3.055-.935 1.62.685 1.995 1.994 1.558 2.992-.25.56-.685.997-1.247 1.06l2.432.997-.312.81-4.925-1.932zm1.496-.312c.125.062.25.062.374.125.624.062 1.185-.25 1.434-.81.374-.873-.124-1.621-1.184-2.058-.873-.374-1.87-.187-2.182.624-.25.56-.062 1.246.499 1.62.062.063.187.125.311.187l.748.312zM10.917 39.779c1.06.499 1.87.062 2.245-.686.311-.56.373-.935.373-1.309l.624.125c0 .312-.125.873-.499 1.558-.685 1.31-1.932 1.683-3.241.998-1.31-.686-1.933-1.933-1.247-3.18.748-1.371 2.12-1.122 2.93-.748.187.063.25.187.374.187l-1.559 3.055zm.624-2.618c-.499-.25-1.372-.437-1.808.436-.436.81.125 1.496.623 1.87l1.185-2.306zM12.538 31.675l.623.374-.81 1.31 3.49 2.18-.436.749-3.49-2.182-.811 1.31-.623-.375 2.057-3.366zM13.597 30.116l1.31.936c.062-.188.249-.437.436-.686.623-.873 1.558-1.621 2.618-.873.436.312.561.686.623 1.06.063.685-.374 1.434-.748 2.057-.311.374-.56.748-.81.997l-3.927-2.742.498-.749zm3.429 2.494c.125-.125.25-.25.436-.499.374-.56.686-1.371.063-1.807-.686-.5-1.31.124-1.746.623-.125.187-.25.374-.312.56l1.559 1.123zM17.65 24.943c.186-.312.56-.81.934-1.185.561-.623 1.559-1.496 2.307-.81.436.374.436.997.125 1.496.56-.436 1.184-.561 1.683-.125.935.873 0 2.12-.624 2.868-.374.374-.748.81-.935.997l-3.49-3.241zm1.994.685l.437-.498c.436-.5.748-1.122.311-1.496-.374-.312-.81-.188-1.371.498a3.426 3.426 0 00-.437.561l1.06.935zm1.683 1.496l.499-.498c.374-.437.873-1.185.374-1.621-.499-.499-1.122-.062-1.683.561l-.436.499 1.246 1.06zM21.764 20.517l1.37 1.496c.5.561.874.935 1.31 1.434-.187-.624-.312-.998-.436-1.621l-.624-2.868.748-.685 3.304 3.49-.623.562-1.372-1.497c-.56-.56-.81-.872-1.309-1.496.187.686.312 1.06.437 1.621.187.873.436 1.87.623 2.868l-.748.685-3.304-3.49.623-.5zM28.371 14.844l2.556 3.242.374-.312 1.31 1.745-.562.437-.872-1.185-2.619 2.057.936 1.247-.562.436-1.371-1.683.312-.249c0-.374-.125-.748-.25-1.06a7.952 7.952 0 00-.997-1.683l-.748-.997 2.493-1.995zm-.997 2.618c.374.499.686 1.06.935 1.559.125.311.187.623.25.935l1.745-1.372-2.182-2.743-1.247.998.499.623zM31.675 15.654c.686.998 1.558.998 2.306.499.5-.374.749-.623.998-.935l.499.436c-.187.312-.561.686-1.185 1.122-1.246.81-2.493.5-3.304-.685-.81-1.185-.748-2.619.437-3.429 1.309-.873 2.43.063 2.93.81.124.125.187.25.187.375l-2.868 1.807zm1.808-1.932c-.312-.499-.997-1.06-1.808-.499-.748.499-.623 1.372-.312 1.933l2.12-1.434zM39.218 10.917c.873 1.558.125 2.867-.873 3.428-1.122.624-2.493.25-3.241-1.06-.748-1.433-.312-2.742.873-3.428 1.246-.686 2.555-.25 3.241 1.06zm-3.304 1.87c.499.935 1.434 1.31 2.182.935.748-.374.935-1.371.374-2.369-.374-.685-1.247-1.433-2.182-.935-.935.499-.872 1.559-.374 2.369z"/></svg></svg>